<?xml version="1.0" encoding="UTF-8" standalone="no"?>
<!DOCTYPE svg PUBLIC "-//W3C//DTD SVG 1.1//EN"
 "http://www.w3.org/Graphics/SVG/1.1/DTD/svg11.dtd">
<!-- Generated by graphviz version 2.26.3 (20100126.1600)
 -->
<!-- Title: controllers_diagram Pages: 1 -->
<svg width="722pt" height="645pt"
 viewBox="0.00 0.00 722.00 645.35" xmlns="http://www.w3.org/2000/svg" xmlns:xlink="http://www.w3.org/1999/xlink">
<g id="graph1" class="graph" transform="scale(1 1) rotate(0) translate(4 641.347)">
<title>controllers_diagram</title>
<polygon fill="white" stroke="white" points="-4,5 -4,-641.347 719,-641.347 719,5 -4,5"/>
<!-- _diagram_info -->
<g id="node1" class="node"><title>_diagram_info</title>
<text text-anchor="start" x="471" y="-162.3" font-family="Times Roman,serif" font-size="13.00">Controllers diagram</text>
<text text-anchor="start" x="471" y="-145.3" font-family="Times Roman,serif" font-size="13.00">Date: Mar 22 2013 &#45; 12:59</text>
<text text-anchor="start" x="471" y="-128.3" font-family="Times Roman,serif" font-size="13.00">Migration version: 20130321213156</text>
<text text-anchor="start" x="471" y="-111.3" font-family="Times Roman,serif" font-size="13.00">Generated by RailRoady 1.1.0</text>
<text text-anchor="start" x="471" y="-94.3" font-family="Times Roman,serif" font-size="13.00">http://railroady.prestonlee.com</text>
</g>
<!-- PlaysController -->
<g id="node2" class="node"><title>PlaysController</title>
<polyline fill="none" stroke="black" points="13,-383.865 111,-383.865 "/>
<path fill="none" stroke="black" d="M111,-383.865C117,-383.865 123,-389.865 123,-395.865"/>
<polyline fill="none" stroke="black" points="123,-395.865 123,-617.865 "/>
<path fill="none" stroke="black" d="M123,-617.865C123,-623.865 117,-629.865 111,-629.865"/>
<polyline fill="none" stroke="black" points="111,-629.865 13,-629.865 "/>
<path fill="none" stroke="black" d="M13,-629.865C7,-629.865 1,-623.865 1,-617.865"/>
<polyline fill="none" stroke="black" points="1,-617.865 1,-395.865 "/>
<path fill="none" stroke="black" d="M1,-395.865C1,-389.865 7,-383.865 13,-383.865"/>
<text text-anchor="middle" x="62" y="-613.265" font-family="Times Roman,serif" font-size="14.00">PlaysController</text>
<polyline fill="none" stroke="black" points="1,-603.865 123,-603.865 "/>
<text text-anchor="start" x="9" y="-587.265" font-family="Times Roman,serif" font-size="14.00">create</text>
<text text-anchor="start" x="9" y="-569.265" font-family="Times Roman,serif" font-size="14.00">destroy</text>
<text text-anchor="start" x="9" y="-551.265" font-family="Times Roman,serif" font-size="14.00">edit</text>
<text text-anchor="start" x="9" y="-533.265" font-family="Times Roman,serif" font-size="14.00">index</text>
<text text-anchor="start" x="9" y="-515.265" font-family="Times Roman,serif" font-size="14.00">new</text>
<text text-anchor="start" x="9" y="-497.265" font-family="Times Roman,serif" font-size="14.00">show</text>
<text text-anchor="start" x="9" y="-479.265" font-family="Times Roman,serif" font-size="14.00">update</text>
<polyline fill="none" stroke="black" points="1,-469.865 123,-469.865 "/>
<polyline fill="none" stroke="black" points="1,-445.865 123,-445.865 "/>
<text text-anchor="start" x="9" y="-429.265" font-family="Times Roman,serif" font-size="14.00">_layout</text>
<text text-anchor="start" x="9" y="-411.265" font-family="Times Roman,serif" font-size="14.00">play_params</text>
<text text-anchor="start" x="9" y="-393.265" font-family="Times Roman,serif" font-size="14.00">set_play</text>
</g>
<!-- GamesController -->
<g id="node3" class="node"><title>GamesController</title>
<polyline fill="none" stroke="black" points="270.152,-15.1781 379.152,-15.1781 "/>
<path fill="none" stroke="black" d="M379.152,-15.1781C385.152,-15.1781 391.152,-21.1781 391.152,-27.1781"/>
<polyline fill="none" stroke="black" points="391.152,-27.1781 391.152,-249.178 "/>
<path fill="none" stroke="black" d="M391.152,-249.178C391.152,-255.178 385.152,-261.178 379.152,-261.178"/>
<polyline fill="none" stroke="black" points="379.152,-261.178 270.152,-261.178 "/>
<path fill="none" stroke="black" d="M270.152,-261.178C264.152,-261.178 258.152,-255.178 258.152,-249.178"/>
<polyline fill="none" stroke="black" points="258.152,-249.178 258.152,-27.1781 "/>
<path fill="none" stroke="black" d="M258.152,-27.1781C258.152,-21.1781 264.152,-15.1781 270.152,-15.1781"/>
<text text-anchor="middle" x="324.652" y="-244.578" font-family="Times Roman,serif" font-size="14.00">GamesController</text>
<polyline fill="none" stroke="black" points="258.152,-235.178 391.152,-235.178 "/>
<text text-anchor="start" x="266.152" y="-218.578" font-family="Times Roman,serif" font-size="14.00">create</text>
<text text-anchor="start" x="266.152" y="-200.578" font-family="Times Roman,serif" font-size="14.00">destroy</text>
<text text-anchor="start" x="266.152" y="-182.578" font-family="Times Roman,serif" font-size="14.00">edit</text>
<text text-anchor="start" x="266.152" y="-164.578" font-family="Times Roman,serif" font-size="14.00">index</text>
<text text-anchor="start" x="266.152" y="-146.578" font-family="Times Roman,serif" font-size="14.00">new</text>
<text text-anchor="start" x="266.152" y="-128.578" font-family="Times Roman,serif" font-size="14.00">show</text>
<text text-anchor="start" x="266.152" y="-110.578" font-family="Times Roman,serif" font-size="14.00">update</text>
<polyline fill="none" stroke="black" points="258.152,-101.178 391.152,-101.178 "/>
<polyline fill="none" stroke="black" points="258.152,-77.1781 391.152,-77.1781 "/>
<text text-anchor="start" x="266.152" y="-60.5781" font-family="Times Roman,serif" font-size="14.00">_layout</text>
<text text-anchor="start" x="266.152" y="-42.5781" font-family="Times Roman,serif" font-size="14.00">game_params</text>
<text text-anchor="start" x="266.152" y="-24.5781" font-family="Times Roman,serif" font-size="14.00">set_game</text>
</g>
<!-- TeamsController -->
<g id="node4" class="node"><title>TeamsController</title>
<polyline fill="none" stroke="black" points="19.6793,-1.5 123.679,-1.5 "/>
<path fill="none" stroke="black" d="M123.679,-1.5C129.679,-1.5 135.679,-7.5 135.679,-13.5"/>
<polyline fill="none" stroke="black" points="135.679,-13.5 135.679,-235.5 "/>
<path fill="none" stroke="black" d="M135.679,-235.5C135.679,-241.5 129.679,-247.5 123.679,-247.5"/>
<polyline fill="none" stroke="black" points="123.679,-247.5 19.6793,-247.5 "/>
<path fill="none" stroke="black" d="M19.6793,-247.5C13.6793,-247.5 7.67934,-241.5 7.67934,-235.5"/>
<polyline fill="none" stroke="black" points="7.67934,-235.5 7.67934,-13.5 "/>
<path fill="none" stroke="black" d="M7.67934,-13.5C7.67934,-7.5 13.6793,-1.5 19.6793,-1.5"/>
<text text-anchor="middle" x="71.6793" y="-230.9" font-family="Times Roman,serif" font-size="14.00">TeamsController</text>
<polyline fill="none" stroke="black" points="7.67934,-221.5 135.679,-221.5 "/>
<text text-anchor="start" x="15.6793" y="-204.9" font-family="Times Roman,serif" font-size="14.00">create</text>
<text text-anchor="start" x="15.6793" y="-186.9" font-family="Times Roman,serif" font-size="14.00">destroy</text>
<text text-anchor="start" x="15.6793" y="-168.9" font-family="Times Roman,serif" font-size="14.00">edit</text>
<text text-anchor="start" x="15.6793" y="-150.9" font-family="Times Roman,serif" font-size="14.00">index</text>
<text text-anchor="start" x="15.6793" y="-132.9" font-family="Times Roman,serif" font-size="14.00">new</text>
<text text-anchor="start" x="15.6793" y="-114.9" font-family="Times Roman,serif" font-size="14.00">show</text>
<text text-anchor="start" x="15.6793" y="-96.9" font-family="Times Roman,serif" font-size="14.00">update</text>
<polyline fill="none" stroke="black" points="7.67934,-87.5 135.679,-87.5 "/>
<polyline fill="none" stroke="black" points="7.67934,-63.5 135.679,-63.5 "/>
<text text-anchor="start" x="15.6793" y="-46.9" font-family="Times Roman,serif" font-size="14.00">_layout</text>
<text text-anchor="start" x="15.6793" y="-28.9" font-family="Times Roman,serif" font-size="14.00">set_team</text>
<text text-anchor="start" x="15.6793" y="-10.9" font-family="Times Roman,serif" font-size="14.00">team_params</text>
</g>
<!-- ApplicationController -->
<g id="node5" class="node"><title>ApplicationController</title>
<polyline fill="none" stroke="black" points="117.16,-270.049 254.16,-270.049 "/>
<path fill="none" stroke="black" d="M254.16,-270.049C260.16,-270.049 266.16,-276.049 266.16,-282.049"/>
<polyline fill="none" stroke="black" points="266.16,-282.049 266.16,-358.049 "/>
<path fill="none" stroke="black" d="M266.16,-358.049C266.16,-364.049 260.16,-370.049 254.16,-370.049"/>
<polyline fill="none" stroke="black" points="254.16,-370.049 117.16,-370.049 "/>
<path fill="none" stroke="black" d="M117.16,-370.049C111.16,-370.049 105.16,-364.049 105.16,-358.049"/>
<polyline fill="none" stroke="black" points="105.16,-358.049 105.16,-282.049 "/>
<path fill="none" stroke="black" d="M105.16,-282.049C105.16,-276.049 111.16,-270.049 117.16,-270.049"/>
<text text-anchor="middle" x="185.66" y="-353.449" font-family="Times Roman,serif" font-size="14.00">ApplicationController</text>
<polyline fill="none" stroke="black" points="105.16,-344.049 266.16,-344.049 "/>
<polyline fill="none" stroke="black" points="105.16,-320.049 266.16,-320.049 "/>
<polyline fill="none" stroke="black" points="105.16,-296.049 266.16,-296.049 "/>
<text text-anchor="start" x="113.16" y="-279.449" font-family="Times Roman,serif" font-size="14.00">_layout</text>
</g>
<!-- ApplicationController&#45;&gt;PlaysController -->
<g id="edge2" class="edge"><title>ApplicationController&#45;&gt;PlaysController</title>
<path fill="none" stroke="black" d="M152.522,-370.113C143.436,-383.839 133.288,-399.17 123.164,-414.464"/>
</g>
<!-- ApplicationController&#45;&gt;GamesController -->
<g id="edge4" class="edge"><title>ApplicationController&#45;&gt;GamesController</title>
<path fill="none" stroke="black" d="M224.008,-269.871C234.534,-256.097 246.263,-240.751 257.889,-225.538"/>
</g>
<!-- ApplicationController&#45;&gt;TeamsController -->
<g id="edge6" class="edge"><title>ApplicationController&#45;&gt;TeamsController</title>
<path fill="none" stroke="black" d="M156.455,-269.945C150.057,-258.968 143.041,-246.93 135.87,-234.627"/>
</g>
<!-- PlayersController -->
<g id="node6" class="node"><title>PlayersController</title>
<polyline fill="none" stroke="black" points="259.07,-389.847 371.07,-389.847 "/>
<path fill="none" stroke="black" d="M371.07,-389.847C377.07,-389.847 383.07,-395.847 383.07,-401.847"/>
<polyline fill="none" stroke="black" points="383.07,-401.847 383.07,-623.847 "/>
<path fill="none" stroke="black" d="M383.07,-623.847C383.07,-629.847 377.07,-635.847 371.07,-635.847"/>
<polyline fill="none" stroke="black" points="371.07,-635.847 259.07,-635.847 "/>
<path fill="none" stroke="black" d="M259.07,-635.847C253.07,-635.847 247.07,-629.847 247.07,-623.847"/>
<polyline fill="none" stroke="black" points="247.07,-623.847 247.07,-401.847 "/>
<path fill="none" stroke="black" d="M247.07,-401.847C247.07,-395.847 253.07,-389.847 259.07,-389.847"/>
<text text-anchor="middle" x="315.07" y="-619.247" font-family="Times Roman,serif" font-size="14.00">PlayersController</text>
<polyline fill="none" stroke="black" points="247.07,-609.847 383.07,-609.847 "/>
<text text-anchor="start" x="255.07" y="-593.247" font-family="Times Roman,serif" font-size="14.00">create</text>
<text text-anchor="start" x="255.07" y="-575.247" font-family="Times Roman,serif" font-size="14.00">destroy</text>
<text text-anchor="start" x="255.07" y="-557.247" font-family="Times Roman,serif" font-size="14.00">edit</text>
<text text-anchor="start" x="255.07" y="-539.247" font-family="Times Roman,serif" font-size="14.00">index</text>
<text text-anchor="start" x="255.07" y="-521.247" font-family="Times Roman,serif" font-size="14.00">new</text>
<text text-anchor="start" x="255.07" y="-503.247" font-family="Times Roman,serif" font-size="14.00">show</text>
<text text-anchor="start" x="255.07" y="-485.247" font-family="Times Roman,serif" font-size="14.00">update</text>
<polyline fill="none" stroke="black" points="247.07,-475.847 383.07,-475.847 "/>
<polyline fill="none" stroke="black" points="247.07,-451.847 383.07,-451.847 "/>
<text text-anchor="start" x="255.07" y="-435.247" font-family="Times Roman,serif" font-size="14.00">_layout</text>
<text text-anchor="start" x="255.07" y="-417.247" font-family="Times Roman,serif" font-size="14.00">player_params</text>
<text text-anchor="start" x="255.07" y="-399.247" font-family="Times Roman,serif" font-size="14.00">set_player</text>
</g>
<!-- ApplicationController&#45;&gt;PlayersController -->
<g id="edge8" class="edge"><title>ApplicationController&#45;&gt;PlayersController</title>
<path fill="none" stroke="black" d="M219.323,-370.201C227.861,-382.921 237.343,-397.048 246.926,-411.325"/>
</g>
</g>
</svg>
