<?xml version="1.0" encoding="UTF-8" standalone="no"?>
<!DOCTYPE svg PUBLIC "-//W3C//DTD SVG 1.1//EN"
 "http://www.w3.org/Graphics/SVG/1.1/DTD/svg11.dtd">
<!-- Generated by graphviz version 2.26.3 (20100126.1600)
 -->
<!-- Title: controllers_diagram Pages: 1 -->
<svg width="752pt" height="469pt"
 viewBox="0.00 0.00 752.00 469.27" xmlns="http://www.w3.org/2000/svg" xmlns:xlink="http://www.w3.org/1999/xlink">
<g id="graph1" class="graph" transform="scale(1 1) rotate(0) translate(4 465.266)">
<title>controllers_diagram</title>
<polygon fill="white" stroke="white" points="-4,5 -4,-465.266 749,-465.266 749,5 -4,5"/>
<!-- _diagram_info -->
<g id="node1" class="node"><title>_diagram_info</title>
<text text-anchor="start" x="501" y="-78.3" font-family="Times Roman,serif" font-size="13.00">Controllers diagram</text>
<text text-anchor="start" x="501" y="-61.3" font-family="Times Roman,serif" font-size="13.00">Date: May 04 2013 &#45; 11:26</text>
<text text-anchor="start" x="501" y="-44.3" font-family="Times Roman,serif" font-size="13.00">Migration version: 20130418163151</text>
<text text-anchor="start" x="501" y="-27.3" font-family="Times Roman,serif" font-size="13.00">Generated by RailRoady 1.1.0</text>
<text text-anchor="start" x="501" y="-10.3" font-family="Times Roman,serif" font-size="13.00">http://railroady.prestonlee.com</text>
</g>
<!-- HomeController -->
<g id="node2" class="node"><title>HomeController</title>
<polyline fill="none" stroke="black" points="43.3682,-325.376 144.368,-325.376 "/>
<path fill="none" stroke="black" d="M144.368,-325.376C150.368,-325.376 156.368,-331.376 156.368,-337.376"/>
<polyline fill="none" stroke="black" points="156.368,-337.376 156.368,-415.376 "/>
<path fill="none" stroke="black" d="M156.368,-415.376C156.368,-421.376 150.368,-427.376 144.368,-427.376"/>
<polyline fill="none" stroke="black" points="144.368,-427.376 43.3682,-427.376 "/>
<path fill="none" stroke="black" d="M43.3682,-427.376C37.3682,-427.376 31.3682,-421.376 31.3682,-415.376"/>
<polyline fill="none" stroke="black" points="31.3682,-415.376 31.3682,-337.376 "/>
<path fill="none" stroke="black" d="M31.3682,-337.376C31.3682,-331.376 37.3682,-325.376 43.3682,-325.376"/>
<text text-anchor="middle" x="93.8682" y="-410.776" font-family="Times Roman,serif" font-size="14.00">HomeController</text>
<polyline fill="none" stroke="black" points="31.3682,-401.376 156.368,-401.376 "/>
<text text-anchor="start" x="39.3682" y="-384.776" font-family="Times Roman,serif" font-size="14.00">home</text>
<polyline fill="none" stroke="black" points="31.3682,-375.376 156.368,-375.376 "/>
<polyline fill="none" stroke="black" points="31.3682,-351.376 156.368,-351.376 "/>
<text text-anchor="start" x="39.3682" y="-334.776" font-family="Times Roman,serif" font-size="14.00">_layout</text>
</g>
<!-- GamesController -->
<g id="node3" class="node"><title>GamesController</title>
<polyline fill="none" stroke="black" points="394.014,-131.816 502.014,-131.816 "/>
<path fill="none" stroke="black" d="M502.014,-131.816C508.014,-131.816 514.014,-137.816 514.014,-143.816"/>
<polyline fill="none" stroke="black" points="514.014,-143.816 514.014,-257.816 "/>
<path fill="none" stroke="black" d="M514.014,-257.816C514.014,-263.816 508.014,-269.816 502.014,-269.816"/>
<polyline fill="none" stroke="black" points="502.014,-269.816 394.014,-269.816 "/>
<path fill="none" stroke="black" d="M394.014,-269.816C388.014,-269.816 382.014,-263.816 382.014,-257.816"/>
<polyline fill="none" stroke="black" points="382.014,-257.816 382.014,-143.816 "/>
<path fill="none" stroke="black" d="M382.014,-143.816C382.014,-137.816 388.014,-131.816 394.014,-131.816"/>
<text text-anchor="middle" x="448.014" y="-253.216" font-family="Times Roman,serif" font-size="14.00">GamesController</text>
<polyline fill="none" stroke="black" points="382.014,-243.816 514.014,-243.816 "/>
<text text-anchor="start" x="390.014" y="-227.216" font-family="Times Roman,serif" font-size="14.00">index</text>
<text text-anchor="start" x="390.014" y="-209.216" font-family="Times Roman,serif" font-size="14.00">show</text>
<polyline fill="none" stroke="black" points="382.014,-199.816 514.014,-199.816 "/>
<polyline fill="none" stroke="black" points="382.014,-175.816 514.014,-175.816 "/>
<text text-anchor="start" x="390.014" y="-159.216" font-family="Times Roman,serif" font-size="14.00">_layout</text>
<text text-anchor="start" x="390.014" y="-141.216" font-family="Times Roman,serif" font-size="14.00">set_game</text>
</g>
<!-- TeamsController -->
<g id="node4" class="node"><title>TeamsController</title>
<polyline fill="none" stroke="black" points="297.776,-1.5 401.776,-1.5 "/>
<path fill="none" stroke="black" d="M401.776,-1.5C407.776,-1.5 413.776,-7.5 413.776,-13.5"/>
<polyline fill="none" stroke="black" points="413.776,-13.5 413.776,-109.5 "/>
<path fill="none" stroke="black" d="M413.776,-109.5C413.776,-115.5 407.776,-121.5 401.776,-121.5"/>
<polyline fill="none" stroke="black" points="401.776,-121.5 297.776,-121.5 "/>
<path fill="none" stroke="black" d="M297.776,-121.5C291.776,-121.5 285.776,-115.5 285.776,-109.5"/>
<polyline fill="none" stroke="black" points="285.776,-109.5 285.776,-13.5 "/>
<path fill="none" stroke="black" d="M285.776,-13.5C285.776,-7.5 291.776,-1.5 297.776,-1.5"/>
<text text-anchor="middle" x="349.776" y="-104.9" font-family="Times Roman,serif" font-size="14.00">TeamsController</text>
<polyline fill="none" stroke="black" points="285.776,-95.5 413.776,-95.5 "/>
<text text-anchor="start" x="293.776" y="-78.9" font-family="Times Roman,serif" font-size="14.00">index</text>
<polyline fill="none" stroke="black" points="285.776,-69.5 413.776,-69.5 "/>
<polyline fill="none" stroke="black" points="285.776,-45.5 413.776,-45.5 "/>
<text text-anchor="start" x="293.776" y="-28.9" font-family="Times Roman,serif" font-size="14.00">_layout</text>
<text text-anchor="start" x="293.776" y="-10.9" font-family="Times Roman,serif" font-size="14.00">set_team</text>
</g>
<!-- ApplicationController -->
<g id="node5" class="node"><title>ApplicationController</title>
<polyline fill="none" stroke="black" points="173.59,-198.466 310.59,-198.466 "/>
<path fill="none" stroke="black" d="M310.59,-198.466C316.59,-198.466 322.59,-204.466 322.59,-210.466"/>
<polyline fill="none" stroke="black" points="322.59,-210.466 322.59,-286.466 "/>
<path fill="none" stroke="black" d="M322.59,-286.466C322.59,-292.466 316.59,-298.466 310.59,-298.466"/>
<polyline fill="none" stroke="black" points="310.59,-298.466 173.59,-298.466 "/>
<path fill="none" stroke="black" d="M173.59,-298.466C167.59,-298.466 161.59,-292.466 161.59,-286.466"/>
<polyline fill="none" stroke="black" points="161.59,-286.466 161.59,-210.466 "/>
<path fill="none" stroke="black" d="M161.59,-210.466C161.59,-204.466 167.59,-198.466 173.59,-198.466"/>
<text text-anchor="middle" x="242.09" y="-281.866" font-family="Times Roman,serif" font-size="14.00">ApplicationController</text>
<polyline fill="none" stroke="black" points="161.59,-272.466 322.59,-272.466 "/>
<polyline fill="none" stroke="black" points="161.59,-248.466 322.59,-248.466 "/>
<polyline fill="none" stroke="black" points="161.59,-224.466 322.59,-224.466 "/>
<text text-anchor="start" x="169.59" y="-207.866" font-family="Times Roman,serif" font-size="14.00">_layout</text>
</g>
<!-- ApplicationController&#45;&gt;HomeController -->
<g id="edge2" class="edge"><title>ApplicationController&#45;&gt;HomeController</title>
<path fill="none" stroke="black" d="M183.934,-298.652C173.878,-307.331 163.409,-316.364 153.318,-325.072"/>
</g>
<!-- ApplicationController&#45;&gt;GamesController -->
<g id="edge4" class="edge"><title>ApplicationController&#45;&gt;GamesController</title>
<path fill="none" stroke="black" d="M322.591,-229.838C342.219,-225.297 362.991,-220.49 381.864,-216.123"/>
</g>
<!-- ApplicationController&#45;&gt;TeamsController -->
<g id="edge6" class="edge"><title>ApplicationController&#45;&gt;TeamsController</title>
<path fill="none" stroke="black" d="M270.948,-198.362C284.53,-174.782 300.837,-146.47 315.086,-121.731"/>
</g>
<!-- PlayersController -->
<g id="node6" class="node"><title>PlayersController</title>
<polyline fill="none" stroke="black" points="331.852,-339.766 442.852,-339.766 "/>
<path fill="none" stroke="black" d="M442.852,-339.766C448.852,-339.766 454.852,-345.766 454.852,-351.766"/>
<polyline fill="none" stroke="black" points="454.852,-351.766 454.852,-447.766 "/>
<path fill="none" stroke="black" d="M454.852,-447.766C454.852,-453.766 448.852,-459.766 442.852,-459.766"/>
<polyline fill="none" stroke="black" points="442.852,-459.766 331.852,-459.766 "/>
<path fill="none" stroke="black" d="M331.852,-459.766C325.852,-459.766 319.852,-453.766 319.852,-447.766"/>
<polyline fill="none" stroke="black" points="319.852,-447.766 319.852,-351.766 "/>
<path fill="none" stroke="black" d="M319.852,-351.766C319.852,-345.766 325.852,-339.766 331.852,-339.766"/>
<text text-anchor="middle" x="387.352" y="-443.166" font-family="Times Roman,serif" font-size="14.00">PlayersController</text>
<polyline fill="none" stroke="black" points="319.852,-433.766 454.852,-433.766 "/>
<text text-anchor="start" x="327.852" y="-417.166" font-family="Times Roman,serif" font-size="14.00">index</text>
<text text-anchor="start" x="327.852" y="-399.166" font-family="Times Roman,serif" font-size="14.00">show</text>
<polyline fill="none" stroke="black" points="319.852,-389.766 454.852,-389.766 "/>
<polyline fill="none" stroke="black" points="319.852,-365.766 454.852,-365.766 "/>
<text text-anchor="start" x="327.852" y="-349.166" font-family="Times Roman,serif" font-size="14.00">_layout</text>
</g>
<!-- ApplicationController&#45;&gt;PlayersController -->
<g id="edge8" class="edge"><title>ApplicationController&#45;&gt;PlayersController</title>
<path fill="none" stroke="black" d="M290.46,-298.846C303.005,-311.913 316.641,-326.116 329.615,-339.628"/>
</g>
<!-- PlayersYearsController -->
<g id="node7" class="node"><title>PlayersYearsController</title>
<polyline fill="none" stroke="black" points="13,-39.1708 161,-39.1708 "/>
<path fill="none" stroke="black" d="M161,-39.1708C167,-39.1708 173,-45.1708 173,-51.1708"/>
<polyline fill="none" stroke="black" points="173,-51.1708 173,-165.171 "/>
<path fill="none" stroke="black" d="M173,-165.171C173,-171.171 167,-177.171 161,-177.171"/>
<polyline fill="none" stroke="black" points="161,-177.171 13,-177.171 "/>
<path fill="none" stroke="black" d="M13,-177.171C7,-177.171 1,-171.171 1,-165.171"/>
<polyline fill="none" stroke="black" points="1,-165.171 1,-51.1708 "/>
<path fill="none" stroke="black" d="M1,-51.1708C1,-45.1708 7,-39.1708 13,-39.1708"/>
<text text-anchor="middle" x="87" y="-160.571" font-family="Times Roman,serif" font-size="14.00">PlayersYearsController</text>
<polyline fill="none" stroke="black" points="1,-151.171 173,-151.171 "/>
<text text-anchor="start" x="9" y="-134.571" font-family="Times Roman,serif" font-size="14.00">index</text>
<text text-anchor="start" x="9" y="-116.571" font-family="Times Roman,serif" font-size="14.00">show</text>
<polyline fill="none" stroke="black" points="1,-107.171 173,-107.171 "/>
<polyline fill="none" stroke="black" points="1,-83.1708 173,-83.1708 "/>
<text text-anchor="start" x="9" y="-66.5708" font-family="Times Roman,serif" font-size="14.00">_layout</text>
<text text-anchor="start" x="9" y="-48.5708" font-family="Times Roman,serif" font-size="14.00">set_players_year</text>
</g>
<!-- ApplicationController&#45;&gt;PlayersYearsController -->
<g id="edge10" class="edge"><title>ApplicationController&#45;&gt;PlayersYearsController</title>
<path fill="none" stroke="black" d="M186.537,-198.212C179.062,-191.45 171.29,-184.42 163.532,-177.401"/>
</g>
</g>
</svg>
