<?xml version="1.0" encoding="UTF-8" standalone="no"?>
<!DOCTYPE svg PUBLIC "-//W3C//DTD SVG 1.1//EN"
 "http://www.w3.org/Graphics/SVG/1.1/DTD/svg11.dtd">
<!-- Generated by graphviz version 2.26.3 (20100126.1600)
 -->
<!-- Title: models_diagram Pages: 1 -->
<svg width="637pt" height="362pt"
 viewBox="0.00 0.00 637.00 362.00" xmlns="http://www.w3.org/2000/svg" xmlns:xlink="http://www.w3.org/1999/xlink">
<g id="graph1" class="graph" transform="scale(1 1) rotate(0) translate(4 358)">
<title>models_diagram</title>
<polygon fill="white" stroke="white" points="-4,5 -4,-358 634,-358 634,5 -4,5"/>
<!-- _diagram_info -->
<g id="node1" class="node"><title>_diagram_info</title>
<text text-anchor="start" x="8" y="-337.8" font-family="Times Roman,serif" font-size="13.00">Models diagram</text>
<text text-anchor="start" x="8" y="-320.8" font-family="Times Roman,serif" font-size="13.00">Date: May 04 2013 &#45; 11:26</text>
<text text-anchor="start" x="8" y="-303.8" font-family="Times Roman,serif" font-size="13.00">Migration version: 20130418163151</text>
<text text-anchor="start" x="8" y="-286.8" font-family="Times Roman,serif" font-size="13.00">Generated by RailRoady 1.1.0</text>
<text text-anchor="start" x="8" y="-269.8" font-family="Times Roman,serif" font-size="13.00">http://railroady.prestonlee.com</text>
</g>
<!-- PlayersGame -->
<g id="node2" class="node"><title>PlayersGame</title>
<ellipse fill="none" stroke="black" cx="148" cy="-19" rx="75.1594" ry="18.3848"/>
<text text-anchor="middle" x="148" y="-15.4" font-family="Times Roman,serif" font-size="14.00">PlayersGame</text>
</g>
<!-- Player -->
<g id="node3" class="node"><title>Player</title>
<ellipse fill="none" stroke="black" cx="310" cy="-307" rx="41.9273" ry="18.3848"/>
<text text-anchor="middle" x="310" y="-303.4" font-family="Times Roman,serif" font-size="14.00">Player</text>
</g>
<!-- Player&#45;&gt;PlayersGame -->
<g id="edge4" class="edge"><title>Player&#45;&gt;PlayersGame</title>
<path fill="none" stroke="#e5a18d" d="M287.52,-284.061C278.984,-275.964 268.922,-267.113 259,-260 245.422,-250.266 239.306,-252.103 226,-242 208.227,-228.505 203.92,-224.195 191,-206 164.532,-168.727 155.503,-158.492 145,-114 141.12,-97.5629 144.556,-92.8831 145,-76 145.242,-66.8152 145.702,-56.8065 146.19,-47.7755"/>
<ellipse fill="none" stroke="#e5a18d" cx="290.566" cy="-287.007" rx="4.00002" ry="4.00002"/>
<polygon fill="#e5a18d" stroke="#e5a18d" points="146.194,-47.7147 151.258,-37.9884 146.48,-42.7228 146.766,-37.731 146.766,-37.731 146.766,-37.731 146.48,-42.7228 142.273,-37.4736 146.194,-47.7147 146.194,-47.7147"/>
</g>
<!-- Game -->
<g id="node5" class="node"><title>Game</title>
<ellipse fill="none" stroke="black" cx="194" cy="-95" rx="39.8075" ry="18.3848"/>
<text text-anchor="middle" x="194" y="-91.4" font-family="Times Roman,serif" font-size="14.00">Game</text>
</g>
<!-- Player&#45;&gt;Game -->
<g id="edge8" class="edge"><title>Player&#45;&gt;Game</title>
<path fill="none" stroke="#6dcda9" d="M282.615,-283.123C252.498,-254.861 205.87,-204.685 187,-150 184.12,-141.655 184.202,-132.231 185.494,-123.571"/>
<polygon fill="#6dcda9" stroke="#6dcda9" points="282.905,-283.389 287.214,-293.473 286.583,-286.775 290.262,-290.162 290.262,-290.162 290.262,-290.162 286.583,-286.775 293.31,-286.851 282.905,-283.389 282.905,-283.389"/>
<polygon fill="#6dcda9" stroke="#6dcda9" points="185.547,-123.309 191.959,-114.413 186.549,-118.41 187.55,-113.511 187.55,-113.511 187.55,-113.511 186.549,-118.41 183.142,-112.61 185.547,-123.309 185.547,-123.309"/>
</g>
<!-- PlayersYear -->
<g id="node6" class="node"><title>PlayersYear</title>
<ellipse fill="none" stroke="black" cx="561" cy="-187" rx="67.8823" ry="18.3848"/>
<text text-anchor="middle" x="561" y="-183.4" font-family="Times Roman,serif" font-size="14.00">PlayersYear</text>
</g>
<!-- Player&#45;&gt;PlayersYear -->
<g id="edge10" class="edge"><title>Player&#45;&gt;PlayersYear</title>
<path fill="none" stroke="#463ecf" d="M351.955,-293.791C386.856,-282.118 437.372,-263.619 479,-242 496.422,-232.952 514.667,-220.992 529.512,-210.537"/>
<ellipse fill="none" stroke="#463ecf" cx="348.113" cy="-295.063" rx="4.00001" ry="4.00001"/>
<polygon fill="#463ecf" stroke="#463ecf" points="529.694,-210.406 540.446,-208.248 533.761,-207.497 537.827,-204.588 537.827,-204.588 537.827,-204.588 533.761,-207.497 535.209,-200.928 529.694,-210.406 529.694,-210.406"/>
</g>
<!-- Team -->
<g id="node8" class="node"><title>Team</title>
<ellipse fill="none" stroke="black" cx="318" cy="-187" rx="36.7696" ry="18.3848"/>
<text text-anchor="middle" x="318" y="-183.4" font-family="Times Roman,serif" font-size="14.00">Team</text>
</g>
<!-- Player&#45;&gt;Team -->
<g id="edge6" class="edge"><title>Player&#45;&gt;Team</title>
<path fill="none" stroke="#a15a5e" d="M306.413,-278.101C305.061,-262.083 304.402,-241.854 307,-224 307.425,-221.078 308.03,-218.066 308.74,-215.081"/>
<polygon fill="#a15a5e" stroke="#a15a5e" points="306.45,-278.484 302.95,-288.876 306.939,-283.46 307.428,-288.436 307.428,-288.436 307.428,-288.436 306.939,-283.46 311.906,-287.996 306.45,-278.484 306.45,-278.484"/>
<polygon fill="#a15a5e" stroke="#a15a5e" points="308.802,-214.852 315.789,-206.4 310.126,-210.03 311.45,-205.209 311.45,-205.209 311.45,-205.209 310.126,-210.03 307.11,-204.017 308.802,-214.852 308.802,-214.852"/>
</g>
<!-- PlayersTeam -->
<g id="node9" class="node"><title>PlayersTeam</title>
<ellipse fill="none" stroke="black" cx="514" cy="-95" rx="72.832" ry="18.3848"/>
<text text-anchor="middle" x="514" y="-91.4" font-family="Times Roman,serif" font-size="14.00">PlayersTeam</text>
</g>
<!-- Player&#45;&gt;PlayersTeam -->
<g id="edge2" class="edge"><title>Player&#45;&gt;PlayersTeam</title>
<path fill="none" stroke="#3e00b2" d="M349.492,-291.717C374.218,-280.688 405.533,-263.893 428,-242 463.503,-207.403 489.389,-155.073 503.028,-123.076"/>
<ellipse fill="none" stroke="#3e00b2" cx="345.716" cy="-293.359" rx="4.00002" ry="4.00002"/>
<polygon fill="#3e00b2" stroke="#3e00b2" points="503.028,-123.075 511.02,-115.567 504.946,-118.458 506.864,-113.84 506.864,-113.84 506.864,-113.84 504.946,-118.458 502.708,-112.114 503.028,-123.075 503.028,-123.075"/>
</g>
<!-- Stats -->
<g id="node4" class="node"><title>Stats</title>
<ellipse fill="none" stroke="black" cx="561" cy="-307" rx="36.977" ry="18.3848"/>
<text text-anchor="middle" x="561" y="-303.4" font-family="Times Roman,serif" font-size="14.00">Stats</text>
</g>
<!-- Stats&#45;&gt;PlayersYear -->
<g id="edge12" class="edge"><title>Stats&#45;&gt;PlayersYear</title>
<path fill="none" stroke="#a9ed34" d="M561,-280.053C561,-260.303 561,-233.609 561,-213.876"/>
<ellipse fill="none" stroke="#a9ed34" cx="561" cy="-284.25" rx="4" ry="4"/>
<ellipse fill="#a9ed34" stroke="#a9ed34" cx="561" cy="-209.618" rx="4" ry="4"/>
</g>
<!-- Game&#45;&gt;PlayersGame -->
<g id="edge14" class="edge"><title>Game&#45;&gt;PlayersGame</title>
<path fill="none" stroke="#cb85d1" d="M178.828,-69.933C174.21,-62.304 169.115,-53.8854 164.419,-46.127"/>
<ellipse fill="none" stroke="#cb85d1" cx="181.027" cy="-73.5671" rx="4.00002" ry="4.00002"/>
<polygon fill="#cb85d1" stroke="#cb85d1" points="164.321,-45.9646 162.992,-35.0795 161.732,-41.6871 159.143,-37.4096 159.143,-37.4096 159.143,-37.4096 161.732,-41.6871 155.293,-39.7397 164.321,-45.9646 164.321,-45.9646"/>
</g>
<!-- TeamYear -->
<g id="node7" class="node"><title>TeamYear</title>
<ellipse fill="none" stroke="black" cx="365" cy="-95" rx="57.9828" ry="18.3848"/>
<text text-anchor="middle" x="365" y="-91.4" font-family="Times Roman,serif" font-size="14.00">TeamYear</text>
</g>
<!-- Team&#45;&gt;Player -->
<g id="edge16" class="edge"><title>Team&#45;&gt;Player</title>
<path fill="none" stroke="#533375" d="M316.224,-213.645C314.946,-232.803 313.226,-258.611 311.918,-278.236"/>
<ellipse fill="none" stroke="#533375" cx="316.493" cy="-209.609" rx="4" ry="4"/>
<polygon fill="#533375" stroke="#533375" points="311.915,-278.272 306.76,-287.951 311.583,-283.261 311.25,-288.25 311.25,-288.25 311.25,-288.25 311.583,-283.261 315.74,-288.549 311.915,-278.272 311.915,-278.272"/>
<text text-anchor="middle" x="370" y="-229.4" font-family="Times Roman,serif" font-size="14.00">current_players</text>
</g>
<!-- Team&#45;&gt;Game -->
<g id="edge18" class="edge"><title>Team&#45;&gt;Game</title>
<path fill="none" stroke="#4872d6" d="M274.753,-179.18C244.116,-172.685 206.79,-162.503 197,-150 191.218,-142.615 189.426,-132.815 189.415,-123.534"/>
<ellipse fill="none" stroke="#4872d6" cx="278.863" cy="-180.026" rx="4.00001" ry="4.00001"/>
<polygon fill="#4872d6" stroke="#4872d6" points="189.423,-123.415 194.534,-113.713 189.733,-118.424 190.043,-113.434 190.043,-113.434 190.043,-113.434 189.733,-118.424 185.552,-113.155 189.423,-123.415 189.423,-123.415"/>
<text text-anchor="middle" x="242.5" y="-137.4" font-family="Times Roman,serif" font-size="14.00">home_games</text>
</g>
<!-- Team&#45;&gt;Game -->
<g id="edge20" class="edge"><title>Team&#45;&gt;Game</title>
<path fill="none" stroke="#b9cecb" d="M308.393,-161.008C303.568,-150.854 296.837,-139.801 288,-132 274.371,-119.969 256.368,-111.615 239.767,-105.932"/>
<ellipse fill="none" stroke="#b9cecb" cx="310.098" cy="-164.869" rx="4.00002" ry="4.00002"/>
<polygon fill="#b9cecb" stroke="#b9cecb" points="239.728,-105.92 231.563,-98.5992 234.963,-104.403 230.199,-102.887 230.199,-102.887 230.199,-102.887 234.963,-104.403 228.834,-107.176 239.728,-105.92 239.728,-105.92"/>
<text text-anchor="middle" x="347" y="-137.4" font-family="Times Roman,serif" font-size="14.00">away_games</text>
</g>
<!-- Team&#45;&gt;TeamYear -->
<g id="edge22" class="edge"><title>Team&#45;&gt;TeamYear</title>
<path fill="none" stroke="#c3db9e" d="M360.893,-178.162C376.221,-172.715 391.93,-163.974 401,-150 407.521,-139.954 402.645,-128.902 394.621,-119.356"/>
<ellipse fill="none" stroke="#c3db9e" cx="356.757" cy="-179.495" rx="4.00001" ry="4.00001"/>
<polygon fill="#c3db9e" stroke="#c3db9e" points="394.573,-119.306 390.924,-108.965 391.121,-115.689 387.669,-112.072 387.669,-112.072 387.669,-112.072 391.121,-115.689 384.414,-115.179 394.573,-119.306 394.573,-119.306"/>
</g>
<!-- Team&#45;&gt;PlayersTeam -->
<g id="edge24" class="edge"><title>Team&#45;&gt;PlayersTeam</title>
<path fill="none" stroke="#ceab95" d="M356.538,-173.967C374.824,-167.4 396.818,-158.942 416,-150 436.63,-140.383 458.81,-128.109 476.842,-117.597"/>
<ellipse fill="none" stroke="#ceab95" cx="352.717" cy="-175.323" rx="4.00001" ry="4.00001"/>
<polygon fill="#ceab95" stroke="#ceab95" points="477.247,-117.358 488.147,-116.161 481.555,-114.821 485.864,-112.284 485.864,-112.284 485.864,-112.284 481.555,-114.821 483.58,-108.406 477.247,-117.358 477.247,-117.358"/>
</g>
</g>
</svg>
