<?xml version="1.0" encoding="UTF-8" standalone="no"?>
<!DOCTYPE svg PUBLIC "-//W3C//DTD SVG 1.1//EN"
 "http://www.w3.org/Graphics/SVG/1.1/DTD/svg11.dtd">
<!-- Generated by graphviz version 2.26.3 (20100126.1600)
 -->
<!-- Title: models_diagram Pages: 1 -->
<svg width="1598pt" height="362pt"
 viewBox="0.00 0.00 1598.00 362.00" xmlns="http://www.w3.org/2000/svg" xmlns:xlink="http://www.w3.org/1999/xlink">
<g id="graph1" class="graph" transform="scale(1 1) rotate(0) translate(4 358)">
<title>models_diagram</title>
<polygon fill="white" stroke="white" points="-4,5 -4,-358 1595,-358 1595,5 -4,5"/>
<!-- _diagram_info -->
<g id="node1" class="node"><title>_diagram_info</title>
<text text-anchor="start" x="501" y="-337.8" font-family="Times Roman,serif" font-size="13.00">Models diagram</text>
<text text-anchor="start" x="501" y="-320.8" font-family="Times Roman,serif" font-size="13.00">Date: Mar 22 2013 &#45; 12:59</text>
<text text-anchor="start" x="501" y="-303.8" font-family="Times Roman,serif" font-size="13.00">Migration version: 20130321213156</text>
<text text-anchor="start" x="501" y="-286.8" font-family="Times Roman,serif" font-size="13.00">Generated by RailRoady 1.1.0</text>
<text text-anchor="start" x="501" y="-269.8" font-family="Times Roman,serif" font-size="13.00">http://railroady.prestonlee.com</text>
</g>
<!-- ReceivingStats -->
<g id="node2" class="node"><title>ReceivingStats</title>
<ellipse fill="none" stroke="black" cx="83" cy="-95" rx="82.939" ry="18.3848"/>
<text text-anchor="middle" x="83" y="-91.4" font-family="Times Roman,serif" font-size="14.00">ReceivingStats</text>
</g>
<!-- PlayersGame -->
<g id="node6" class="node"><title>PlayersGame</title>
<ellipse fill="none" stroke="black" cx="688" cy="-19" rx="75.1594" ry="18.3848"/>
<text text-anchor="middle" x="688" y="-15.4" font-family="Times Roman,serif" font-size="14.00">PlayersGame</text>
</g>
<!-- ReceivingStats&#45;&gt;PlayersGame -->
<g id="edge2" class="edge"><title>ReceivingStats&#45;&gt;PlayersGame</title>
<path fill="none" stroke="#a3a1bd" d="M150.189,-80.372C158.523,-78.7798 166.943,-77.2767 175,-76 327.741,-51.796 507.68,-34.3216 608.734,-25.5031"/>
<ellipse fill="none" stroke="#a3a1bd" cx="146.165" cy="-81.1562" rx="4.00001" ry="4.00001"/>
<ellipse fill="#a3a1bd" stroke="#a3a1bd" cx="612.783" cy="-25.1517" rx="4" ry="4"/>
</g>
<!-- DefenseStats -->
<g id="node3" class="node"><title>DefenseStats</title>
<ellipse fill="none" stroke="black" cx="261" cy="-95" rx="77.0746" ry="18.3848"/>
<text text-anchor="middle" x="261" y="-91.4" font-family="Times Roman,serif" font-size="14.00">DefenseStats</text>
</g>
<!-- DefenseStats&#45;&gt;PlayersGame -->
<g id="edge4" class="edge"><title>DefenseStats&#45;&gt;PlayersGame</title>
<path fill="none" stroke="#93eef4" d="M324.918,-80.4942C332.351,-78.9213 339.835,-77.3894 347,-76 439.438,-58.0756 546.634,-40.715 615.79,-29.9579"/>
<ellipse fill="none" stroke="#93eef4" cx="320.8" cy="-81.3752" rx="4.00001" ry="4.00001"/>
<ellipse fill="#93eef4" stroke="#93eef4" cx="620.079" cy="-29.2925" rx="4.00001" ry="4.00001"/>
</g>
<!-- ReturnStats -->
<g id="node4" class="node"><title>ReturnStats</title>
<ellipse fill="none" stroke="black" cx="426" cy="-95" rx="70.2092" ry="18.3848"/>
<text text-anchor="middle" x="426" y="-91.4" font-family="Times Roman,serif" font-size="14.00">ReturnStats</text>
</g>
<!-- ReturnStats&#45;&gt;PlayersGame -->
<g id="edge6" class="edge"><title>ReturnStats&#45;&gt;PlayersGame</title>
<path fill="none" stroke="#bdde9a" d="M481.352,-78.9438C525.431,-66.1573 586.896,-48.3279 631.32,-35.4415"/>
<ellipse fill="none" stroke="#bdde9a" cx="477.288" cy="-80.1226" rx="4.00001" ry="4.00001"/>
<ellipse fill="#bdde9a" stroke="#bdde9a" cx="635.289" cy="-34.2904" rx="4.00001" ry="4.00001"/>
</g>
<!-- PassingStats -->
<g id="node5" class="node"><title>PassingStats</title>
<ellipse fill="none" stroke="black" cx="587" cy="-95" rx="73.0388" ry="18.3848"/>
<text text-anchor="middle" x="587" y="-91.4" font-family="Times Roman,serif" font-size="14.00">PassingStats</text>
</g>
<!-- PassingStats&#45;&gt;PlayersGame -->
<g id="edge8" class="edge"><title>PassingStats&#45;&gt;PlayersGame</title>
<path fill="none" stroke="#ecaa54" d="M617.135,-72.3243C629.996,-62.6462 644.975,-51.3751 657.84,-41.6949"/>
<ellipse fill="none" stroke="#ecaa54" cx="613.622" cy="-74.968" rx="4.00002" ry="4.00002"/>
<ellipse fill="#ecaa54" stroke="#ecaa54" cx="661.156" cy="-39.1997" rx="4.00002" ry="4.00002"/>
</g>
<!-- Player -->
<g id="node7" class="node"><title>Player</title>
<ellipse fill="none" stroke="black" cx="803" cy="-307" rx="41.9273" ry="18.3848"/>
<text text-anchor="middle" x="803" y="-303.4" font-family="Times Roman,serif" font-size="14.00">Player</text>
</g>
<!-- Player&#45;&gt;PlayersGame -->
<g id="edge12" class="edge"><title>Player&#45;&gt;PlayersGame</title>
<path fill="none" stroke="#785ce8" d="M779.757,-284.109C768.879,-272.352 756.483,-257.304 748,-242 712.537,-178.02 697.146,-91.9627 691.23,-47.7976"/>
<ellipse fill="none" stroke="#785ce8" cx="782.528" cy="-287.036" rx="4.00002" ry="4.00002"/>
<polygon fill="#785ce8" stroke="#785ce8" points="691.216,-47.6834 694.418,-37.1955 690.585,-42.7234 689.954,-37.7633 689.954,-37.7633 689.954,-37.7633 690.585,-42.7234 685.49,-38.3311 691.216,-47.6834 691.216,-47.6834"/>
</g>
<!-- Game -->
<g id="node9" class="node"><title>Game</title>
<ellipse fill="none" stroke="black" cx="756" cy="-95" rx="39.8075" ry="18.3848"/>
<text text-anchor="middle" x="756" y="-91.4" font-family="Times Roman,serif" font-size="14.00">Game</text>
</g>
<!-- Player&#45;&gt;Game -->
<g id="edge16" class="edge"><title>Player&#45;&gt;Game</title>
<path fill="none" stroke="#53711b" d="M782.953,-280.989C769.28,-261.528 752.365,-233.616 745,-206 737.676,-178.54 742.365,-146.085 747.699,-123.386"/>
<polygon fill="#53711b" stroke="#53711b" points="783.104,-281.199 785.313,-291.94 786.033,-285.252 788.961,-289.305 788.961,-289.305 788.961,-289.305 786.033,-285.252 792.608,-286.67 783.104,-281.199 783.104,-281.199"/>
<polygon fill="#53711b" stroke="#53711b" points="747.775,-123.087 754.599,-114.503 749.007,-118.241 750.238,-113.395 750.238,-113.395 750.238,-113.395 749.007,-118.241 745.876,-112.287 747.775,-123.087 747.775,-123.087"/>
</g>
<!-- Play -->
<g id="node10" class="node"><title>Play</title>
<ellipse fill="none" stroke="black" cx="786" cy="-187" rx="32.0265" ry="18.3848"/>
<text text-anchor="middle" x="786" y="-183.4" font-family="Times Roman,serif" font-size="14.00">Play</text>
</g>
<!-- Player&#45;&gt;Play -->
<g id="edge18" class="edge"><title>Player&#45;&gt;Play</title>
<path fill="none" stroke="#7481f7" d="M799.222,-280.329C796.501,-261.124 792.835,-235.247 790.053,-215.612"/>
<ellipse fill="none" stroke="#7481f7" cx="799.82" cy="-284.553" rx="4.00001" ry="4.00001"/>
<polygon fill="#7481f7" stroke="#7481f7" points="790.053,-215.607 793.105,-205.074 789.351,-210.656 788.65,-205.706 788.65,-205.706 788.65,-205.706 789.351,-210.656 784.194,-206.337 790.053,-215.607 790.053,-215.607"/>
</g>
<!-- Team -->
<g id="node12" class="node"><title>Team</title>
<ellipse fill="none" stroke="black" cx="873" cy="-187" rx="36.977" ry="18.3848"/>
<text text-anchor="middle" x="873" y="-183.4" font-family="Times Roman,serif" font-size="14.00">Team</text>
</g>
<!-- Player&#45;&gt;Team -->
<g id="edge14" class="edge"><title>Player&#45;&gt;Team</title>
<path fill="none" stroke="#eb219a" d="M811.534,-278.783C817.306,-262.074 825.901,-240.932 837,-224 840.071,-219.315 843.788,-214.713 847.653,-210.431"/>
<polygon fill="#eb219a" stroke="#eb219a" points="811.449,-279.041 804.036,-287.122 809.878,-283.788 808.308,-288.536 808.308,-288.536 808.308,-288.536 809.878,-283.788 812.581,-289.949 811.449,-279.041 811.449,-279.041"/>
<polygon fill="#eb219a" stroke="#eb219a" points="847.74,-210.341 857.909,-206.238 851.201,-206.732 854.662,-203.123 854.662,-203.123 854.662,-203.123 851.201,-206.732 851.414,-200.009 847.74,-210.341 847.74,-210.341"/>
</g>
<!-- PlayersTeam -->
<g id="node13" class="node"><title>PlayersTeam</title>
<ellipse fill="none" stroke="black" cx="1021" cy="-95" rx="72.832" ry="18.3848"/>
<text text-anchor="middle" x="1021" y="-91.4" font-family="Times Roman,serif" font-size="14.00">PlayersTeam</text>
</g>
<!-- Player&#45;&gt;PlayersTeam -->
<g id="edge10" class="edge"><title>Player&#45;&gt;PlayersTeam</title>
<path fill="none" stroke="#09095f" d="M850.115,-298.385C885.545,-289.68 933.108,-272.933 964,-242 996.323,-209.634 1010.73,-156.885 1016.85,-124.155"/>
<ellipse fill="none" stroke="#09095f" cx="846.19" cy="-299.309" rx="4.00001" ry="4.00001"/>
<polygon fill="#09095f" stroke="#09095f" points="1016.92,-123.737 1023.05,-114.645 1017.77,-118.809 1018.61,-113.882 1018.61,-113.882 1018.61,-113.882 1017.77,-118.809 1014.18,-113.118 1016.92,-123.737 1016.92,-123.737"/>
</g>
<!-- KickingStats -->
<g id="node8" class="node"><title>KickingStats</title>
<ellipse fill="none" stroke="black" cx="1183" cy="-95" rx="70.9184" ry="18.3848"/>
<text text-anchor="middle" x="1183" y="-91.4" font-family="Times Roman,serif" font-size="14.00">KickingStats</text>
</g>
<!-- KickingStats&#45;&gt;PlayersGame -->
<g id="edge20" class="edge"><title>KickingStats&#45;&gt;PlayersGame</title>
<path fill="none" stroke="#868d3c" d="M1123.79,-80.2625C1116.8,-78.7239 1109.76,-77.2634 1103,-76 985.909,-54.1072 848.762,-36.8951 765.158,-27.3364"/>
<ellipse fill="none" stroke="#868d3c" cx="1128.04" cy="-81.2192" rx="4.00001" ry="4.00001"/>
<ellipse fill="#868d3c" stroke="#868d3c" cx="760.961" cy="-26.8591" rx="4.00001" ry="4.00001"/>
</g>
<!-- Game&#45;&gt;PlayersGame -->
<g id="edge22" class="edge"><title>Game&#45;&gt;PlayersGame</title>
<path fill="none" stroke="#5f4a30" d="M734.986,-71.5135C727.426,-63.0642 718.858,-53.4882 711.128,-44.8488"/>
<ellipse fill="none" stroke="#5f4a30" cx="737.903" cy="-74.7734" rx="4.00002" ry="4.00002"/>
<polygon fill="#5f4a30" stroke="#5f4a30" points="710.985,-44.6896 707.671,-34.2365 707.651,-40.9633 704.317,-37.2371 704.317,-37.2371 704.317,-37.2371 707.651,-40.9633 700.964,-40.2377 710.985,-44.6896 710.985,-44.6896"/>
</g>
<!-- TeamYear -->
<g id="node11" class="node"><title>TeamYear</title>
<ellipse fill="none" stroke="black" cx="872" cy="-95" rx="58.1882" ry="18.3848"/>
<text text-anchor="middle" x="872" y="-91.4" font-family="Times Roman,serif" font-size="14.00">TeamYear</text>
</g>
<!-- Team&#45;&gt;Player -->
<g id="edge24" class="edge"><title>Team&#45;&gt;Player</title>
<path fill="none" stroke="#c6c7af" d="M858.392,-212.043C846.769,-231.968 830.539,-259.79 818.652,-280.168"/>
<ellipse fill="none" stroke="#c6c7af" cx="860.433" cy="-208.543" rx="4.00002" ry="4.00002"/>
<polygon fill="#c6c7af" stroke="#c6c7af" points="818.518,-280.397 809.593,-286.767 815.999,-284.716 813.48,-289.035 813.48,-289.035 813.48,-289.035 815.999,-284.716 817.367,-291.302 818.518,-280.397 818.518,-280.397"/>
<text text-anchor="middle" x="905.5" y="-229.4" font-family="Times Roman,serif" font-size="14.00">current_players</text>
</g>
<!-- Team&#45;&gt;Game -->
<g id="edge26" class="edge"><title>Team&#45;&gt;Game</title>
<path fill="none" stroke="#615bb0" d="M837.427,-171.748C833.927,-170.417 830.41,-169.143 827,-168 796.95,-157.927 777.829,-174.723 758,-150 752.136,-142.689 750.472,-132.906 750.651,-123.619"/>
<ellipse fill="none" stroke="#615bb0" cx="841.288" cy="-173.265" rx="4.00001" ry="4.00001"/>
<polygon fill="#615bb0" stroke="#615bb0" points="750.663,-123.467 755.993,-113.883 751.086,-118.484 751.509,-113.502 751.509,-113.502 751.509,-113.502 751.086,-118.484 747.025,-113.122 750.663,-123.467 750.663,-123.467"/>
<text text-anchor="middle" x="803.5" y="-137.4" font-family="Times Roman,serif" font-size="14.00">home_games</text>
</g>
<!-- Team&#45;&gt;Game -->
<g id="edge28" class="edge"><title>Team&#45;&gt;Game</title>
<path fill="none" stroke="#04e3b2" d="M866.247,-160.759C862.55,-150.696 857.034,-139.775 849,-132 847.922,-130.957 820.92,-120.263 796.29,-110.639"/>
<ellipse fill="none" stroke="#04e3b2" cx="867.577" cy="-164.773" rx="4.00001" ry="4.00001"/>
<polygon fill="#04e3b2" stroke="#04e3b2" points="795.989,-110.522 788.308,-102.695 791.331,-108.705 786.673,-106.888 786.673,-106.888 786.673,-106.888 791.331,-108.705 785.038,-111.08 795.989,-110.522 795.989,-110.522"/>
<text text-anchor="middle" x="907" y="-137.4" font-family="Times Roman,serif" font-size="14.00">away_games</text>
</g>
<!-- Team&#45;&gt;TeamYear -->
<g id="edge30" class="edge"><title>Team&#45;&gt;TeamYear</title>
<path fill="none" stroke="#7f3217" d="M915.27,-177.781C944.97,-169.184 976.944,-154.301 962,-132 957.12,-124.718 941.406,-117.259 924.443,-110.964"/>
<ellipse fill="none" stroke="#7f3217" cx="911.256" cy="-178.879" rx="4.00001" ry="4.00001"/>
<polygon fill="#7f3217" stroke="#7f3217" points="924.376,-110.94 916.458,-103.354 919.664,-109.267 914.952,-107.595 914.952,-107.595 914.952,-107.595 919.664,-109.267 913.447,-111.835 924.376,-110.94 924.376,-110.94"/>
</g>
<!-- Team&#45;&gt;PlayersTeam -->
<g id="edge32" class="edge"><title>Team&#45;&gt;PlayersTeam</title>
<path fill="none" stroke="#ea495b" d="M915.34,-177.981C935.603,-172.253 959.431,-163.341 978,-150 988.43,-142.506 997.593,-131.793 1004.75,-121.81"/>
<ellipse fill="none" stroke="#ea495b" cx="911.343" cy="-179.057" rx="4.00001" ry="4.00001"/>
<polygon fill="#ea495b" stroke="#ea495b" points="1004.89,-121.6 1014.23,-115.849 1007.7,-117.462 1010.51,-113.324 1010.51,-113.324 1010.51,-113.324 1007.7,-117.462 1006.78,-110.798 1004.89,-121.6 1004.89,-121.6"/>
</g>
<!-- RushingStats -->
<g id="node14" class="node"><title>RushingStats</title>
<ellipse fill="none" stroke="black" cx="1347" cy="-95" rx="75.1594" ry="18.3848"/>
<text text-anchor="middle" x="1347" y="-91.4" font-family="Times Roman,serif" font-size="14.00">RushingStats</text>
</g>
<!-- RushingStats&#45;&gt;PlayersGame -->
<g id="edge34" class="edge"><title>RushingStats&#45;&gt;PlayersGame</title>
<path fill="none" stroke="#cd35f9" d="M1285.67,-80.2081C1278.06,-78.6454 1270.37,-77.1942 1263,-76 1088.14,-47.6689 880.933,-31.3021 769.196,-23.8738"/>
<ellipse fill="none" stroke="#cd35f9" cx="1289.96" cy="-81.1137" rx="4.00001" ry="4.00001"/>
<ellipse fill="#cd35f9" stroke="#cd35f9" cx="764.98" cy="-23.596" rx="4" ry="4"/>
</g>
<!-- PuntingStats -->
<g id="node15" class="node"><title>PuntingStats</title>
<ellipse fill="none" stroke="black" cx="1515" cy="-95" rx="75.1594" ry="18.3848"/>
<text text-anchor="middle" x="1515" y="-91.4" font-family="Times Roman,serif" font-size="14.00">PuntingStats</text>
</g>
<!-- PuntingStats&#45;&gt;PlayersGame -->
<g id="edge36" class="edge"><title>PuntingStats&#45;&gt;PlayersGame</title>
<path fill="none" stroke="#da5817" d="M1453.69,-80.0486C1446.08,-78.5134 1438.38,-77.1121 1431,-76 1193,-40.1493 908.513,-26.3023 770.807,-21.4117"/>
<ellipse fill="none" stroke="#da5817" cx="1457.98" cy="-80.943" rx="4.00001" ry="4.00001"/>
<ellipse fill="#da5817" stroke="#da5817" cx="766.752" cy="-21.2698" rx="4" ry="4"/>
</g>
</g>
</svg>
