<?xml version="1.0" encoding="UTF-8" standalone="no"?>
<!DOCTYPE svg PUBLIC "-//W3C//DTD SVG 1.1//EN"
 "http://www.w3.org/Graphics/SVG/1.1/DTD/svg11.dtd">
<!-- Generated by graphviz version 2.26.3 (20100126.1600)
 -->
<!-- Title: models_diagram Pages: 1 -->
<svg width="2108pt" height="964pt"
 viewBox="0.00 0.00 2108.00 964.00" xmlns="http://www.w3.org/2000/svg" xmlns:xlink="http://www.w3.org/1999/xlink">
<g id="graph1" class="graph" transform="scale(1 1) rotate(0) translate(4 960)">
<title>models_diagram</title>
<polygon fill="white" stroke="white" points="-4,5 -4,-960 2105,-960 2105,5 -4,5"/>
<!-- ReceivingStats -->
<g id="node2" class="node"><title>ReceivingStats</title>
<polyline fill="none" stroke="black" points="11.5,-309 152.5,-309 "/>
<path fill="none" stroke="black" d="M152.5,-309C158.5,-309 164.5,-315 164.5,-321"/>
<polyline fill="none" stroke="black" points="164.5,-321 164.5,-475 "/>
<path fill="none" stroke="black" d="M164.5,-475C164.5,-481 158.5,-487 152.5,-487"/>
<polyline fill="none" stroke="black" points="152.5,-487 11.5,-487 "/>
<path fill="none" stroke="black" d="M11.5,-487C5.5,-487 -0.5,-481 -0.5,-475"/>
<polyline fill="none" stroke="black" points="-0.5,-475 -0.5,-321 "/>
<path fill="none" stroke="black" d="M-0.5,-321C-0.5,-315 5.5,-309 11.5,-309"/>
<text text-anchor="middle" x="82" y="-470.4" font-family="Times Roman,serif" font-size="14.00">ReceivingStats</text>
<polyline fill="none" stroke="black" points="-0.5,-461 164.5,-461 "/>
<text text-anchor="start" x="7.5" y="-444.4" font-family="Times Roman,serif" font-size="14.00">id :integer</text>
<text text-anchor="start" x="7.5" y="-426.4" font-family="Times Roman,serif" font-size="14.00">receptions :integer</text>
<text text-anchor="start" x="7.5" y="-408.4" font-family="Times Roman,serif" font-size="14.00">targets :integer</text>
<text text-anchor="start" x="7.5" y="-390.4" font-family="Times Roman,serif" font-size="14.00">yards :integer</text>
<text text-anchor="start" x="7.5" y="-372.4" font-family="Times Roman,serif" font-size="14.00">touchdowns :integer</text>
<text text-anchor="start" x="7.5" y="-354.4" font-family="Times Roman,serif" font-size="14.00">fumbles :integer</text>
<text text-anchor="start" x="7.5" y="-336.4" font-family="Times Roman,serif" font-size="14.00">created_at :datetime</text>
<text text-anchor="start" x="7.5" y="-318.4" font-family="Times Roman,serif" font-size="14.00">updated_at :datetime</text>
</g>
<!-- PlayersGame -->
<g id="node6" class="node"><title>PlayersGame</title>
<polyline fill="none" stroke="black" points="823,-1 997,-1 "/>
<path fill="none" stroke="black" d="M997,-1C1003,-1 1009,-7 1009,-13"/>
<polyline fill="none" stroke="black" points="1009,-13 1009,-221 "/>
<path fill="none" stroke="black" d="M1009,-221C1009,-227 1003,-233 997,-233"/>
<polyline fill="none" stroke="black" points="997,-233 823,-233 "/>
<path fill="none" stroke="black" d="M823,-233C817,-233 811,-227 811,-221"/>
<polyline fill="none" stroke="black" points="811,-221 811,-13 "/>
<path fill="none" stroke="black" d="M811,-13C811,-7 817,-1 823,-1"/>
<text text-anchor="middle" x="910" y="-216.4" font-family="Times Roman,serif" font-size="14.00">PlayersGame</text>
<polyline fill="none" stroke="black" points="811,-207 1009,-207 "/>
<text text-anchor="start" x="819" y="-190.4" font-family="Times Roman,serif" font-size="14.00">player_id :integer</text>
<text text-anchor="start" x="819" y="-172.4" font-family="Times Roman,serif" font-size="14.00">game_id :integer</text>
<text text-anchor="start" x="819" y="-154.4" font-family="Times Roman,serif" font-size="14.00">passing_stats_id :integer</text>
<text text-anchor="start" x="819" y="-136.4" font-family="Times Roman,serif" font-size="14.00">rushing_stats_id :integer</text>
<text text-anchor="start" x="819" y="-118.4" font-family="Times Roman,serif" font-size="14.00">receiving_stats_id :integer</text>
<text text-anchor="start" x="819" y="-100.4" font-family="Times Roman,serif" font-size="14.00">return_stats_id :integer</text>
<text text-anchor="start" x="819" y="-82.4" font-family="Times Roman,serif" font-size="14.00">kicking_stats_id :integer</text>
<text text-anchor="start" x="819" y="-64.4" font-family="Times Roman,serif" font-size="14.00">punting_stats_id :integer</text>
<text text-anchor="start" x="819" y="-46.4" font-family="Times Roman,serif" font-size="14.00">defense_stats_id :integer</text>
<text text-anchor="start" x="819" y="-28.4" font-family="Times Roman,serif" font-size="14.00">created_at :datetime</text>
<text text-anchor="start" x="819" y="-10.4" font-family="Times Roman,serif" font-size="14.00">updated_at :datetime</text>
</g>
<!-- ReceivingStats&#45;&gt;PlayersGame -->
<g id="edge2" class="edge"><title>ReceivingStats&#45;&gt;PlayersGame</title>
<path fill="none" stroke="#190135" d="M138.531,-302.654C148.765,-290.973 160.284,-280.264 173,-272 275.911,-205.118 624.25,-152.972 802.696,-129.918"/>
<ellipse fill="none" stroke="#190135" cx="135.879" cy="-305.789" rx="4.00002" ry="4.00002"/>
<ellipse fill="#190135" stroke="#190135" cx="806.835" cy="-129.386" rx="4.00001" ry="4.00001"/>
</g>
<!-- DefenseStats -->
<g id="node3" class="node"><title>DefenseStats</title>
<polyline fill="none" stroke="black" points="194,-273 420,-273 "/>
<path fill="none" stroke="black" d="M420,-273C426,-273 432,-279 432,-285"/>
<polyline fill="none" stroke="black" points="432,-285 432,-511 "/>
<path fill="none" stroke="black" d="M432,-511C432,-517 426,-523 420,-523"/>
<polyline fill="none" stroke="black" points="420,-523 194,-523 "/>
<path fill="none" stroke="black" d="M194,-523C188,-523 182,-517 182,-511"/>
<polyline fill="none" stroke="black" points="182,-511 182,-285 "/>
<path fill="none" stroke="black" d="M182,-285C182,-279 188,-273 194,-273"/>
<text text-anchor="middle" x="307" y="-506.4" font-family="Times Roman,serif" font-size="14.00">DefenseStats</text>
<polyline fill="none" stroke="black" points="182,-497 432,-497 "/>
<text text-anchor="start" x="190" y="-480.4" font-family="Times Roman,serif" font-size="14.00">id :integer</text>
<text text-anchor="start" x="190" y="-462.4" font-family="Times Roman,serif" font-size="14.00">solo_tackles :integer</text>
<text text-anchor="start" x="190" y="-444.4" font-family="Times Roman,serif" font-size="14.00">assist_tackles :integer</text>
<text text-anchor="start" x="190" y="-426.4" font-family="Times Roman,serif" font-size="14.00">sacks :float</text>
<text text-anchor="start" x="190" y="-408.4" font-family="Times Roman,serif" font-size="14.00">passes_defended :integer</text>
<text text-anchor="start" x="190" y="-390.4" font-family="Times Roman,serif" font-size="14.00">interceptions :integer</text>
<text text-anchor="start" x="190" y="-372.4" font-family="Times Roman,serif" font-size="14.00">interception_touchdowns :integer</text>
<text text-anchor="start" x="190" y="-354.4" font-family="Times Roman,serif" font-size="14.00">fumbles_forced :integer</text>
<text text-anchor="start" x="190" y="-336.4" font-family="Times Roman,serif" font-size="14.00">fumbles_recovered :integer</text>
<text text-anchor="start" x="190" y="-318.4" font-family="Times Roman,serif" font-size="14.00">fumbles_touchdown :integer</text>
<text text-anchor="start" x="190" y="-300.4" font-family="Times Roman,serif" font-size="14.00">created_at :datetime</text>
<text text-anchor="start" x="190" y="-282.4" font-family="Times Roman,serif" font-size="14.00">updated_at :datetime</text>
</g>
<!-- DefenseStats&#45;&gt;PlayersGame -->
<g id="edge4" class="edge"><title>DefenseStats&#45;&gt;PlayersGame</title>
<path fill="none" stroke="#7a98d8" d="M439.381,-272.972C439.92,-272.646 440.46,-272.322 441,-272 555.614,-203.777 704.083,-161.238 802.96,-138.357"/>
<ellipse fill="none" stroke="#7a98d8" cx="435.783" cy="-275.226" rx="4.00002" ry="4.00002"/>
<ellipse fill="#7a98d8" stroke="#7a98d8" cx="806.983" cy="-137.434" rx="4.00001" ry="4.00001"/>
</g>
<!-- ReturnStats -->
<g id="node4" class="node"><title>ReturnStats</title>
<polyline fill="none" stroke="black" points="461.5,-300 688.5,-300 "/>
<path fill="none" stroke="black" d="M688.5,-300C694.5,-300 700.5,-306 700.5,-312"/>
<polyline fill="none" stroke="black" points="700.5,-312 700.5,-484 "/>
<path fill="none" stroke="black" d="M700.5,-484C700.5,-490 694.5,-496 688.5,-496"/>
<polyline fill="none" stroke="black" points="688.5,-496 461.5,-496 "/>
<path fill="none" stroke="black" d="M461.5,-496C455.5,-496 449.5,-490 449.5,-484"/>
<polyline fill="none" stroke="black" points="449.5,-484 449.5,-312 "/>
<path fill="none" stroke="black" d="M449.5,-312C449.5,-306 455.5,-300 461.5,-300"/>
<text text-anchor="middle" x="575" y="-479.4" font-family="Times Roman,serif" font-size="14.00">ReturnStats</text>
<polyline fill="none" stroke="black" points="449.5,-470 700.5,-470 "/>
<text text-anchor="start" x="457.5" y="-453.4" font-family="Times Roman,serif" font-size="14.00">id :integer</text>
<text text-anchor="start" x="457.5" y="-435.4" font-family="Times Roman,serif" font-size="14.00">kick_return_attempts :integer</text>
<text text-anchor="start" x="457.5" y="-417.4" font-family="Times Roman,serif" font-size="14.00">kick_return_yards :integer</text>
<text text-anchor="start" x="457.5" y="-399.4" font-family="Times Roman,serif" font-size="14.00">kick_return_touchdowns :integer</text>
<text text-anchor="start" x="457.5" y="-381.4" font-family="Times Roman,serif" font-size="14.00">punt_return_attempts :integer</text>
<text text-anchor="start" x="457.5" y="-363.4" font-family="Times Roman,serif" font-size="14.00">punt_return_yards :integer</text>
<text text-anchor="start" x="457.5" y="-345.4" font-family="Times Roman,serif" font-size="14.00">punt_return_touchdowns :integer</text>
<text text-anchor="start" x="457.5" y="-327.4" font-family="Times Roman,serif" font-size="14.00">created_at :datetime</text>
<text text-anchor="start" x="457.5" y="-309.4" font-family="Times Roman,serif" font-size="14.00">updated_at :datetime</text>
</g>
<!-- ReturnStats&#45;&gt;PlayersGame -->
<g id="edge6" class="edge"><title>ReturnStats&#45;&gt;PlayersGame</title>
<path fill="none" stroke="#5ff880" d="M683.198,-294.588C691.839,-286.844 700.509,-279.236 709,-272 739.216,-246.25 773.059,-219.427 804.233,-195.476"/>
<ellipse fill="none" stroke="#5ff880" cx="680.196" cy="-297.291" rx="4.00002" ry="4.00002"/>
<ellipse fill="#5ff880" stroke="#5ff880" cx="807.667" cy="-192.843" rx="4.00002" ry="4.00002"/>
</g>
<!-- PassingStats -->
<g id="node5" class="node"><title>PassingStats</title>
<polyline fill="none" stroke="black" points="729.5,-291 870.5,-291 "/>
<path fill="none" stroke="black" d="M870.5,-291C876.5,-291 882.5,-297 882.5,-303"/>
<polyline fill="none" stroke="black" points="882.5,-303 882.5,-493 "/>
<path fill="none" stroke="black" d="M882.5,-493C882.5,-499 876.5,-505 870.5,-505"/>
<polyline fill="none" stroke="black" points="870.5,-505 729.5,-505 "/>
<path fill="none" stroke="black" d="M729.5,-505C723.5,-505 717.5,-499 717.5,-493"/>
<polyline fill="none" stroke="black" points="717.5,-493 717.5,-303 "/>
<path fill="none" stroke="black" d="M717.5,-303C717.5,-297 723.5,-291 729.5,-291"/>
<text text-anchor="middle" x="800" y="-488.4" font-family="Times Roman,serif" font-size="14.00">PassingStats</text>
<polyline fill="none" stroke="black" points="717.5,-479 882.5,-479 "/>
<text text-anchor="start" x="725.5" y="-462.4" font-family="Times Roman,serif" font-size="14.00">id :integer</text>
<text text-anchor="start" x="725.5" y="-444.4" font-family="Times Roman,serif" font-size="14.00">completions :integer</text>
<text text-anchor="start" x="725.5" y="-426.4" font-family="Times Roman,serif" font-size="14.00">attempts :integer</text>
<text text-anchor="start" x="725.5" y="-408.4" font-family="Times Roman,serif" font-size="14.00">yards :integer</text>
<text text-anchor="start" x="725.5" y="-390.4" font-family="Times Roman,serif" font-size="14.00">touchdowns :integer</text>
<text text-anchor="start" x="725.5" y="-372.4" font-family="Times Roman,serif" font-size="14.00">interceptions :integer</text>
<text text-anchor="start" x="725.5" y="-354.4" font-family="Times Roman,serif" font-size="14.00">sacked :integer</text>
<text text-anchor="start" x="725.5" y="-336.4" font-family="Times Roman,serif" font-size="14.00">rating :float</text>
<text text-anchor="start" x="725.5" y="-318.4" font-family="Times Roman,serif" font-size="14.00">created_at :datetime</text>
<text text-anchor="start" x="725.5" y="-300.4" font-family="Times Roman,serif" font-size="14.00">updated_at :datetime</text>
</g>
<!-- PassingStats&#45;&gt;PlayersGame -->
<g id="edge8" class="edge"><title>PassingStats&#45;&gt;PlayersGame</title>
<path fill="none" stroke="#2e4ce3" d="M844.868,-283.383C850.346,-269.39 855.962,-255.042 861.49,-240.921"/>
<ellipse fill="none" stroke="#2e4ce3" cx="843.358" cy="-287.24" rx="4.00001" ry="4.00001"/>
<ellipse fill="#2e4ce3" stroke="#2e4ce3" cx="863.092" cy="-236.828" rx="4.00001" ry="4.00001"/>
</g>
<!-- Player -->
<g id="node7" class="node"><title>Player</title>
<polyline fill="none" stroke="black" points="1017.5,-795 1158.5,-795 "/>
<path fill="none" stroke="black" d="M1158.5,-795C1164.5,-795 1170.5,-801 1170.5,-807"/>
<polyline fill="none" stroke="black" points="1170.5,-807 1170.5,-943 "/>
<path fill="none" stroke="black" d="M1170.5,-943C1170.5,-949 1164.5,-955 1158.5,-955"/>
<polyline fill="none" stroke="black" points="1158.5,-955 1017.5,-955 "/>
<path fill="none" stroke="black" d="M1017.5,-955C1011.5,-955 1005.5,-949 1005.5,-943"/>
<polyline fill="none" stroke="black" points="1005.5,-943 1005.5,-807 "/>
<path fill="none" stroke="black" d="M1005.5,-807C1005.5,-801 1011.5,-795 1017.5,-795"/>
<text text-anchor="middle" x="1088" y="-938.4" font-family="Times Roman,serif" font-size="14.00">Player</text>
<polyline fill="none" stroke="black" points="1005.5,-929 1170.5,-929 "/>
<text text-anchor="start" x="1013.5" y="-912.4" font-family="Times Roman,serif" font-size="14.00">id :integer</text>
<text text-anchor="start" x="1013.5" y="-894.4" font-family="Times Roman,serif" font-size="14.00">position :string</text>
<text text-anchor="start" x="1013.5" y="-876.4" font-family="Times Roman,serif" font-size="14.00">name :string</text>
<text text-anchor="start" x="1013.5" y="-858.4" font-family="Times Roman,serif" font-size="14.00">shortname :string</text>
<text text-anchor="start" x="1013.5" y="-840.4" font-family="Times Roman,serif" font-size="14.00">team_id :integer</text>
<text text-anchor="start" x="1013.5" y="-822.4" font-family="Times Roman,serif" font-size="14.00">created_at :datetime</text>
<text text-anchor="start" x="1013.5" y="-804.4" font-family="Times Roman,serif" font-size="14.00">updated_at :datetime</text>
</g>
<!-- Player&#45;&gt;PlayersGame -->
<g id="edge12" class="edge"><title>Player&#45;&gt;PlayersGame</title>
<path fill="none" stroke="#dce15f" d="M999.076,-795.738C998.382,-795.155 997.69,-794.576 997,-794 987.036,-785.681 982.73,-785.606 974,-776 961.231,-761.949 957.242,-757.931 951,-740 893.748,-575.547 892.206,-372.156 898.999,-243.459"/>
<ellipse fill="none" stroke="#dce15f" cx="1002.31" cy="-798.469" rx="4.00002" ry="4.00002"/>
<polygon fill="#dce15f" stroke="#dce15f" points="899.016,-243.154 904.062,-233.418 899.292,-238.162 899.568,-233.169 899.568,-233.169 899.568,-233.169 899.292,-238.162 895.075,-232.921 899.016,-243.154 899.016,-243.154"/>
</g>
<!-- Game -->
<g id="node9" class="node"><title>Game</title>
<polyline fill="none" stroke="black" points="950,-318 1102,-318 "/>
<path fill="none" stroke="black" d="M1102,-318C1108,-318 1114,-324 1114,-330"/>
<polyline fill="none" stroke="black" points="1114,-330 1114,-466 "/>
<path fill="none" stroke="black" d="M1114,-466C1114,-472 1108,-478 1102,-478"/>
<polyline fill="none" stroke="black" points="1102,-478 950,-478 "/>
<path fill="none" stroke="black" d="M950,-478C944,-478 938,-472 938,-466"/>
<polyline fill="none" stroke="black" points="938,-466 938,-330 "/>
<path fill="none" stroke="black" d="M938,-330C938,-324 944,-318 950,-318"/>
<text text-anchor="middle" x="1026" y="-461.4" font-family="Times Roman,serif" font-size="14.00">Game</text>
<polyline fill="none" stroke="black" points="938,-452 1114,-452 "/>
<text text-anchor="start" x="946" y="-435.4" font-family="Times Roman,serif" font-size="14.00">id :integer</text>
<text text-anchor="start" x="946" y="-417.4" font-family="Times Roman,serif" font-size="14.00">date :datetime</text>
<text text-anchor="start" x="946" y="-399.4" font-family="Times Roman,serif" font-size="14.00">home_team_id :integer</text>
<text text-anchor="start" x="946" y="-381.4" font-family="Times Roman,serif" font-size="14.00">away_team_id :integer</text>
<text text-anchor="start" x="946" y="-363.4" font-family="Times Roman,serif" font-size="14.00">weather :string</text>
<text text-anchor="start" x="946" y="-345.4" font-family="Times Roman,serif" font-size="14.00">created_at :datetime</text>
<text text-anchor="start" x="946" y="-327.4" font-family="Times Roman,serif" font-size="14.00">updated_at :datetime</text>
</g>
<!-- Player&#45;&gt;Game -->
<g id="edge16" class="edge"><title>Player&#45;&gt;Game</title>
<path fill="none" stroke="#106de6" d="M998.945,-791.912C986.702,-775.948 975.959,-758.417 969,-740 937.962,-657.852 960.811,-558.265 986.209,-487.793"/>
<polygon fill="#106de6" stroke="#106de6" points="999.245,-792.289 1001.95,-802.916 1002.36,-796.201 1005.47,-800.113 1005.47,-800.113 1005.47,-800.113 1002.36,-796.201 1008.99,-797.311 999.245,-792.289 999.245,-792.289"/>
<polygon fill="#106de6" stroke="#106de6" points="986.343,-487.429 994.026,-479.605 988.074,-482.738 989.804,-478.047 989.804,-478.047 989.804,-478.047 988.074,-482.738 985.582,-476.49 986.343,-487.429 986.343,-487.429"/>
</g>
<!-- Play -->
<g id="node10" class="node"><title>Play</title>
<polyline fill="none" stroke="black" points="989.5,-579 1130.5,-579 "/>
<path fill="none" stroke="black" d="M1130.5,-579C1136.5,-579 1142.5,-585 1142.5,-591"/>
<polyline fill="none" stroke="black" points="1142.5,-591 1142.5,-727 "/>
<path fill="none" stroke="black" d="M1142.5,-727C1142.5,-733 1136.5,-739 1130.5,-739"/>
<polyline fill="none" stroke="black" points="1130.5,-739 989.5,-739 "/>
<path fill="none" stroke="black" d="M989.5,-739C983.5,-739 977.5,-733 977.5,-727"/>
<polyline fill="none" stroke="black" points="977.5,-727 977.5,-591 "/>
<path fill="none" stroke="black" d="M977.5,-591C977.5,-585 983.5,-579 989.5,-579"/>
<text text-anchor="middle" x="1060" y="-722.4" font-family="Times Roman,serif" font-size="14.00">Play</text>
<polyline fill="none" stroke="black" points="977.5,-713 1142.5,-713 "/>
<text text-anchor="start" x="985.5" y="-696.4" font-family="Times Roman,serif" font-size="14.00">id :integer</text>
<text text-anchor="start" x="985.5" y="-678.4" font-family="Times Roman,serif" font-size="14.00">game_id :integer</text>
<text text-anchor="start" x="985.5" y="-660.4" font-family="Times Roman,serif" font-size="14.00">player_id :integer</text>
<text text-anchor="start" x="985.5" y="-642.4" font-family="Times Roman,serif" font-size="14.00">type :string</text>
<text text-anchor="start" x="985.5" y="-624.4" font-family="Times Roman,serif" font-size="14.00">yards :integer</text>
<text text-anchor="start" x="985.5" y="-606.4" font-family="Times Roman,serif" font-size="14.00">created_at :datetime</text>
<text text-anchor="start" x="985.5" y="-588.4" font-family="Times Roman,serif" font-size="14.00">updated_at :datetime</text>
</g>
<!-- Player&#45;&gt;Play -->
<g id="edge18" class="edge"><title>Player&#45;&gt;Play</title>
<path fill="none" stroke="#82853a" d="M1076.56,-786.736C1074.97,-774.486 1073.34,-761.885 1071.74,-749.593"/>
<ellipse fill="none" stroke="#82853a" cx="1077.1" cy="-790.91" rx="4.00001" ry="4.00001"/>
<polygon fill="#82853a" stroke="#82853a" points="1071.7,-749.271 1074.88,-738.776 1071.06,-744.313 1070.42,-739.354 1070.42,-739.354 1070.42,-739.354 1071.06,-744.313 1065.95,-739.933 1071.7,-749.271 1071.7,-749.271"/>
</g>
<!-- Team -->
<g id="node12" class="node"><title>Team</title>
<polyline fill="none" stroke="black" points="1171.5,-588 1312.5,-588 "/>
<path fill="none" stroke="black" d="M1312.5,-588C1318.5,-588 1324.5,-594 1324.5,-600"/>
<polyline fill="none" stroke="black" points="1324.5,-600 1324.5,-718 "/>
<path fill="none" stroke="black" d="M1324.5,-718C1324.5,-724 1318.5,-730 1312.5,-730"/>
<polyline fill="none" stroke="black" points="1312.5,-730 1171.5,-730 "/>
<path fill="none" stroke="black" d="M1171.5,-730C1165.5,-730 1159.5,-724 1159.5,-718"/>
<polyline fill="none" stroke="black" points="1159.5,-718 1159.5,-600 "/>
<path fill="none" stroke="black" d="M1159.5,-600C1159.5,-594 1165.5,-588 1171.5,-588"/>
<text text-anchor="middle" x="1242" y="-713.4" font-family="Times Roman,serif" font-size="14.00">Team</text>
<polyline fill="none" stroke="black" points="1159.5,-704 1324.5,-704 "/>
<text text-anchor="start" x="1167.5" y="-687.4" font-family="Times Roman,serif" font-size="14.00">id :integer</text>
<text text-anchor="start" x="1167.5" y="-669.4" font-family="Times Roman,serif" font-size="14.00">name :string</text>
<text text-anchor="start" x="1167.5" y="-651.4" font-family="Times Roman,serif" font-size="14.00">city :string</text>
<text text-anchor="start" x="1167.5" y="-633.4" font-family="Times Roman,serif" font-size="14.00">shortname :string</text>
<text text-anchor="start" x="1167.5" y="-615.4" font-family="Times Roman,serif" font-size="14.00">created_at :datetime</text>
<text text-anchor="start" x="1167.5" y="-597.4" font-family="Times Roman,serif" font-size="14.00">updated_at :datetime</text>
</g>
<!-- Player&#45;&gt;Team -->
<g id="edge14" class="edge"><title>Player&#45;&gt;Team</title>
<path fill="none" stroke="#9a659e" d="M1151.03,-786.589C1162.35,-770.721 1174.08,-754.27 1185.2,-738.667"/>
<polygon fill="#9a659e" stroke="#9a659e" points="1150.93,-786.734 1141.46,-792.264 1148.03,-790.805 1145.13,-794.877 1145.13,-794.877 1145.13,-794.877 1148.03,-790.805 1148.79,-797.489 1150.93,-786.734 1150.93,-786.734"/>
<polygon fill="#9a659e" stroke="#9a659e" points="1185.51,-738.238 1194.98,-732.708 1188.41,-734.166 1191.31,-730.095 1191.31,-730.095 1191.31,-730.095 1188.41,-734.166 1187.65,-727.483 1185.51,-738.238 1185.51,-738.238"/>
</g>
<!-- PlayersTeam -->
<g id="node13" class="node"><title>PlayersTeam</title>
<polyline fill="none" stroke="black" points="1325.5,-327 1466.5,-327 "/>
<path fill="none" stroke="black" d="M1466.5,-327C1472.5,-327 1478.5,-333 1478.5,-339"/>
<polyline fill="none" stroke="black" points="1478.5,-339 1478.5,-457 "/>
<path fill="none" stroke="black" d="M1478.5,-457C1478.5,-463 1472.5,-469 1466.5,-469"/>
<polyline fill="none" stroke="black" points="1466.5,-469 1325.5,-469 "/>
<path fill="none" stroke="black" d="M1325.5,-469C1319.5,-469 1313.5,-463 1313.5,-457"/>
<polyline fill="none" stroke="black" points="1313.5,-457 1313.5,-339 "/>
<path fill="none" stroke="black" d="M1313.5,-339C1313.5,-333 1319.5,-327 1325.5,-327"/>
<text text-anchor="middle" x="1396" y="-452.4" font-family="Times Roman,serif" font-size="14.00">PlayersTeam</text>
<polyline fill="none" stroke="black" points="1313.5,-443 1478.5,-443 "/>
<text text-anchor="start" x="1321.5" y="-426.4" font-family="Times Roman,serif" font-size="14.00">player_id :integer</text>
<text text-anchor="start" x="1321.5" y="-408.4" font-family="Times Roman,serif" font-size="14.00">team_id :integer</text>
<text text-anchor="start" x="1321.5" y="-390.4" font-family="Times Roman,serif" font-size="14.00">start :date</text>
<text text-anchor="start" x="1321.5" y="-372.4" font-family="Times Roman,serif" font-size="14.00">end :date</text>
<text text-anchor="start" x="1321.5" y="-354.4" font-family="Times Roman,serif" font-size="14.00">created_at :datetime</text>
<text text-anchor="start" x="1321.5" y="-336.4" font-family="Times Roman,serif" font-size="14.00">updated_at :datetime</text>
</g>
<!-- Player&#45;&gt;PlayersTeam -->
<g id="edge10" class="edge"><title>Player&#45;&gt;PlayersTeam</title>
<path fill="none" stroke="#d0995e" d="M1178.27,-853.994C1235.76,-835.075 1304.59,-800.597 1333,-740 1372.09,-656.639 1386.96,-551.232 1392.6,-479.626"/>
<ellipse fill="none" stroke="#d0995e" cx="1174.41" cy="-855.229" rx="4.00001" ry="4.00001"/>
<polygon fill="#d0995e" stroke="#d0995e" points="1392.63,-479.286 1397.86,-469.647 1393,-474.3 1393.37,-469.313 1393.37,-469.313 1393.37,-469.313 1393,-474.3 1388.88,-468.98 1392.63,-479.286 1392.63,-479.286"/>
</g>
<!-- KickingStats -->
<g id="node8" class="node"><title>KickingStats</title>
<polyline fill="none" stroke="black" points="1507.5,-318 1724.5,-318 "/>
<path fill="none" stroke="black" d="M1724.5,-318C1730.5,-318 1736.5,-324 1736.5,-330"/>
<polyline fill="none" stroke="black" points="1736.5,-330 1736.5,-466 "/>
<path fill="none" stroke="black" d="M1736.5,-466C1736.5,-472 1730.5,-478 1724.5,-478"/>
<polyline fill="none" stroke="black" points="1724.5,-478 1507.5,-478 "/>
<path fill="none" stroke="black" d="M1507.5,-478C1501.5,-478 1495.5,-472 1495.5,-466"/>
<polyline fill="none" stroke="black" points="1495.5,-466 1495.5,-330 "/>
<path fill="none" stroke="black" d="M1495.5,-330C1495.5,-324 1501.5,-318 1507.5,-318"/>
<text text-anchor="middle" x="1616" y="-461.4" font-family="Times Roman,serif" font-size="14.00">KickingStats</text>
<polyline fill="none" stroke="black" points="1495.5,-452 1736.5,-452 "/>
<text text-anchor="start" x="1503.5" y="-435.4" font-family="Times Roman,serif" font-size="14.00">id :integer</text>
<text text-anchor="start" x="1503.5" y="-417.4" font-family="Times Roman,serif" font-size="14.00">field_goals_made :integer</text>
<text text-anchor="start" x="1503.5" y="-399.4" font-family="Times Roman,serif" font-size="14.00">field_goals_attempted :integer</text>
<text text-anchor="start" x="1503.5" y="-381.4" font-family="Times Roman,serif" font-size="14.00">extra_points_made :integer</text>
<text text-anchor="start" x="1503.5" y="-363.4" font-family="Times Roman,serif" font-size="14.00">extra_points_attempted :integer</text>
<text text-anchor="start" x="1503.5" y="-345.4" font-family="Times Roman,serif" font-size="14.00">created_at :datetime</text>
<text text-anchor="start" x="1503.5" y="-327.4" font-family="Times Roman,serif" font-size="14.00">updated_at :datetime</text>
</g>
<!-- KickingStats&#45;&gt;PlayersGame -->
<g id="edge20" class="edge"><title>KickingStats&#45;&gt;PlayersGame</title>
<path fill="none" stroke="#eea464" d="M1540.75,-312.24C1524.27,-297.154 1506.02,-282.838 1487,-272 1337.02,-186.52 1138.19,-146.674 1017.41,-129.254"/>
<ellipse fill="none" stroke="#eea464" cx="1543.82" cy="-315.1" rx="4.00002" ry="4.00002"/>
<ellipse fill="#eea464" stroke="#eea464" cx="1013.17" cy="-128.652" rx="4.00001" ry="4.00001"/>
</g>
<!-- Game&#45;&gt;PlayersGame -->
<g id="edge22" class="edge"><title>Game&#45;&gt;PlayersGame</title>
<path fill="none" stroke="#6d63e9" d="M989.817,-310.351C980.948,-288.866 971.282,-265.451 961.837,-242.57"/>
<ellipse fill="none" stroke="#6d63e9" cx="991.388" cy="-314.155" rx="4.00002" ry="4.00002"/>
<polygon fill="#6d63e9" stroke="#6d63e9" points="961.764,-242.393 962.107,-231.432 959.856,-237.771 957.948,-233.149 957.948,-233.149 957.948,-233.149 959.856,-237.771 953.788,-234.866 961.764,-242.393 961.764,-242.393"/>
</g>
<!-- TeamYear -->
<g id="node11" class="node"><title>TeamYear</title>
<polyline fill="none" stroke="black" points="1143.5,-309 1284.5,-309 "/>
<path fill="none" stroke="black" d="M1284.5,-309C1290.5,-309 1296.5,-315 1296.5,-321"/>
<polyline fill="none" stroke="black" points="1296.5,-321 1296.5,-475 "/>
<path fill="none" stroke="black" d="M1296.5,-475C1296.5,-481 1290.5,-487 1284.5,-487"/>
<polyline fill="none" stroke="black" points="1284.5,-487 1143.5,-487 "/>
<path fill="none" stroke="black" d="M1143.5,-487C1137.5,-487 1131.5,-481 1131.5,-475"/>
<polyline fill="none" stroke="black" points="1131.5,-475 1131.5,-321 "/>
<path fill="none" stroke="black" d="M1131.5,-321C1131.5,-315 1137.5,-309 1143.5,-309"/>
<text text-anchor="middle" x="1214" y="-470.4" font-family="Times Roman,serif" font-size="14.00">TeamYear</text>
<polyline fill="none" stroke="black" points="1131.5,-461 1296.5,-461 "/>
<text text-anchor="start" x="1139.5" y="-444.4" font-family="Times Roman,serif" font-size="14.00">id :integer</text>
<text text-anchor="start" x="1139.5" y="-426.4" font-family="Times Roman,serif" font-size="14.00">team_id :integer</text>
<text text-anchor="start" x="1139.5" y="-408.4" font-family="Times Roman,serif" font-size="14.00">year :integer</text>
<text text-anchor="start" x="1139.5" y="-390.4" font-family="Times Roman,serif" font-size="14.00">wins :integer</text>
<text text-anchor="start" x="1139.5" y="-372.4" font-family="Times Roman,serif" font-size="14.00">losses :integer</text>
<text text-anchor="start" x="1139.5" y="-354.4" font-family="Times Roman,serif" font-size="14.00">ties :integer</text>
<text text-anchor="start" x="1139.5" y="-336.4" font-family="Times Roman,serif" font-size="14.00">created_at :datetime</text>
<text text-anchor="start" x="1139.5" y="-318.4" font-family="Times Roman,serif" font-size="14.00">updated_at :datetime</text>
</g>
<!-- Team&#45;&gt;Player -->
<g id="edge24" class="edge"><title>Team&#45;&gt;Player</title>
<path fill="none" stroke="#41e0d9" d="M1203.34,-737.343C1195.81,-750.593 1187.58,-763.948 1179,-776 1176.42,-779.628 1173.71,-783.266 1170.92,-786.891"/>
<ellipse fill="none" stroke="#41e0d9" cx="1205.49" cy="-733.494" rx="4.00002" ry="4.00002"/>
<polygon fill="#41e0d9" stroke="#41e0d9" points="1170.88,-786.948 1161.15,-792.011 1167.78,-790.873 1164.68,-794.798 1164.68,-794.798 1164.68,-794.798 1167.78,-790.873 1168.22,-797.586 1170.88,-786.948 1170.88,-786.948"/>
<text text-anchor="middle" x="1244.5" y="-763.4" font-family="Times Roman,serif" font-size="14.00">current_players</text>
</g>
<!-- Team&#45;&gt;Game -->
<g id="edge26" class="edge"><title>Team&#45;&gt;Game</title>
<path fill="none" stroke="#ba70d7" d="M1161.64,-583.522C1158.14,-581.517 1154.59,-579.664 1151,-578 1125.14,-566.012 1042.69,-581.523 1024,-560 1007.07,-540.5 1002.54,-514.15 1003.69,-488.372"/>
<ellipse fill="none" stroke="#ba70d7" cx="1165.32" cy="-585.763" rx="4.00002" ry="4.00002"/>
<polygon fill="#ba70d7" stroke="#ba70d7" points="1003.71,-488.127 1008.93,-478.481 1004.08,-483.14 1004.44,-478.153 1004.44,-478.153 1004.44,-478.153 1004.08,-483.14 999.951,-477.826 1003.71,-488.127 1003.71,-488.127"/>
<text text-anchor="middle" x="1069.5" y="-547.4" font-family="Times Roman,serif" font-size="14.00">home_games</text>
</g>
<!-- Team&#45;&gt;Game -->
<g id="edge28" class="edge"><title>Team&#45;&gt;Game</title>
<path fill="none" stroke="#eb539e" d="M1156,-581.868C1149.03,-574.669 1142.27,-567.323 1136,-560 1116.62,-537.361 1097.61,-511.23 1081,-486.653"/>
<ellipse fill="none" stroke="#eb539e" cx="1159.1" cy="-585.023" rx="4.00002" ry="4.00002"/>
<polygon fill="#eb539e" stroke="#eb539e" points="1080.79,-486.342 1078.96,-475.529 1078.01,-482.188 1075.22,-478.033 1075.22,-478.033 1075.22,-478.033 1078.01,-482.188 1071.48,-480.538 1080.79,-486.342 1080.79,-486.342"/>
<text text-anchor="middle" x="1181" y="-547.4" font-family="Times Roman,serif" font-size="14.00">away_games</text>
</g>
<!-- Team&#45;&gt;TeamYear -->
<g id="edge30" class="edge"><title>Team&#45;&gt;TeamYear</title>
<path fill="none" stroke="#51b738" d="M1233.48,-579.585C1230.71,-553.779 1227.6,-524.808 1224.7,-497.715"/>
<ellipse fill="none" stroke="#51b738" cx="1233.92" cy="-583.703" rx="4" ry="4"/>
<polygon fill="#51b738" stroke="#51b738" points="1224.66,-497.376 1228.07,-486.953 1224.13,-492.405 1223.59,-487.433 1223.59,-487.433 1223.59,-487.433 1224.13,-492.405 1219.12,-487.913 1224.66,-497.376 1224.66,-497.376"/>
</g>
<!-- Team&#45;&gt;PlayersTeam -->
<g id="edge32" class="edge"><title>Team&#45;&gt;PlayersTeam</title>
<path fill="none" stroke="#7ebdb8" d="M1288.21,-580.686C1307.38,-548.188 1329.61,-510.521 1348.88,-477.861"/>
<ellipse fill="none" stroke="#7ebdb8" cx="1286.11" cy="-584.236" rx="4.00002" ry="4.00002"/>
<polygon fill="#7ebdb8" stroke="#7ebdb8" points="1348.89,-477.846 1357.85,-471.52 1351.43,-473.539 1353.97,-469.233 1353.97,-469.233 1353.97,-469.233 1351.43,-473.539 1350.09,-466.946 1348.89,-477.846 1348.89,-477.846"/>
</g>
<!-- RushingStats -->
<g id="node14" class="node"><title>RushingStats</title>
<polyline fill="none" stroke="black" points="1765.5,-318 1906.5,-318 "/>
<path fill="none" stroke="black" d="M1906.5,-318C1912.5,-318 1918.5,-324 1918.5,-330"/>
<polyline fill="none" stroke="black" points="1918.5,-330 1918.5,-466 "/>
<path fill="none" stroke="black" d="M1918.5,-466C1918.5,-472 1912.5,-478 1906.5,-478"/>
<polyline fill="none" stroke="black" points="1906.5,-478 1765.5,-478 "/>
<path fill="none" stroke="black" d="M1765.5,-478C1759.5,-478 1753.5,-472 1753.5,-466"/>
<polyline fill="none" stroke="black" points="1753.5,-466 1753.5,-330 "/>
<path fill="none" stroke="black" d="M1753.5,-330C1753.5,-324 1759.5,-318 1765.5,-318"/>
<text text-anchor="middle" x="1836" y="-461.4" font-family="Times Roman,serif" font-size="14.00">RushingStats</text>
<polyline fill="none" stroke="black" points="1753.5,-452 1918.5,-452 "/>
<text text-anchor="start" x="1761.5" y="-435.4" font-family="Times Roman,serif" font-size="14.00">id :integer</text>
<text text-anchor="start" x="1761.5" y="-417.4" font-family="Times Roman,serif" font-size="14.00">attempts :integer</text>
<text text-anchor="start" x="1761.5" y="-399.4" font-family="Times Roman,serif" font-size="14.00">yards :integer</text>
<text text-anchor="start" x="1761.5" y="-381.4" font-family="Times Roman,serif" font-size="14.00">touchdowns :integer</text>
<text text-anchor="start" x="1761.5" y="-363.4" font-family="Times Roman,serif" font-size="14.00">fumbles :integer</text>
<text text-anchor="start" x="1761.5" y="-345.4" font-family="Times Roman,serif" font-size="14.00">created_at :datetime</text>
<text text-anchor="start" x="1761.5" y="-327.4" font-family="Times Roman,serif" font-size="14.00">updated_at :datetime</text>
</g>
<!-- RushingStats&#45;&gt;PlayersGame -->
<g id="edge34" class="edge"><title>RushingStats&#45;&gt;PlayersGame</title>
<path fill="none" stroke="#07ae9b" d="M1787.19,-311.393C1775.17,-296.278 1761.06,-282.167 1745,-272 1625.28,-196.201 1214.62,-146.846 1017.4,-126.956"/>
<ellipse fill="none" stroke="#07ae9b" cx="1789.77" cy="-314.753" rx="4.00002" ry="4.00002"/>
<ellipse fill="#07ae9b" stroke="#07ae9b" cx="1013.3" cy="-126.546" rx="4" ry="4"/>
</g>
<!-- PuntingStats -->
<g id="node15" class="node"><title>PuntingStats</title>
<polyline fill="none" stroke="black" points="1947.5,-336 2088.5,-336 "/>
<path fill="none" stroke="black" d="M2088.5,-336C2094.5,-336 2100.5,-342 2100.5,-348"/>
<polyline fill="none" stroke="black" points="2100.5,-348 2100.5,-448 "/>
<path fill="none" stroke="black" d="M2100.5,-448C2100.5,-454 2094.5,-460 2088.5,-460"/>
<polyline fill="none" stroke="black" points="2088.5,-460 1947.5,-460 "/>
<path fill="none" stroke="black" d="M1947.5,-460C1941.5,-460 1935.5,-454 1935.5,-448"/>
<polyline fill="none" stroke="black" points="1935.5,-448 1935.5,-348 "/>
<path fill="none" stroke="black" d="M1935.5,-348C1935.5,-342 1941.5,-336 1947.5,-336"/>
<text text-anchor="middle" x="2018" y="-443.4" font-family="Times Roman,serif" font-size="14.00">PuntingStats</text>
<polyline fill="none" stroke="black" points="1935.5,-434 2100.5,-434 "/>
<text text-anchor="start" x="1943.5" y="-417.4" font-family="Times Roman,serif" font-size="14.00">id :integer</text>
<text text-anchor="start" x="1943.5" y="-399.4" font-family="Times Roman,serif" font-size="14.00">punts :integer</text>
<text text-anchor="start" x="1943.5" y="-381.4" font-family="Times Roman,serif" font-size="14.00">yards :integer</text>
<text text-anchor="start" x="1943.5" y="-363.4" font-family="Times Roman,serif" font-size="14.00">created_at :datetime</text>
<text text-anchor="start" x="1943.5" y="-345.4" font-family="Times Roman,serif" font-size="14.00">updated_at :datetime</text>
</g>
<!-- PuntingStats&#45;&gt;PlayersGame -->
<g id="edge36" class="edge"><title>PuntingStats&#45;&gt;PlayersGame</title>
<path fill="none" stroke="#fab9ae" d="M1982.54,-328.945C1968.16,-307.436 1949.55,-285.77 1927,-272 1775.52,-179.483 1246.16,-137.191 1017.05,-122.905"/>
<ellipse fill="none" stroke="#fab9ae" cx="1984.89" cy="-332.557" rx="4.00002" ry="4.00002"/>
<ellipse fill="#fab9ae" stroke="#fab9ae" cx="1013.02" cy="-122.656" rx="4" ry="4"/>
</g>
</g>
</svg>
