<?xml version="1.0" encoding="UTF-8" standalone="no"?>
<!DOCTYPE svg PUBLIC "-//W3C//DTD SVG 1.1//EN"
 "http://www.w3.org/Graphics/SVG/1.1/DTD/svg11.dtd">
<!-- Generated by graphviz version 2.26.3 (20100126.1600)
 -->
<!-- Title: models_diagram Pages: 1 -->
<svg width="748pt" height="1396pt"
 viewBox="0.00 0.00 748.00 1396.00" xmlns="http://www.w3.org/2000/svg" xmlns:xlink="http://www.w3.org/1999/xlink">
<g id="graph1" class="graph" transform="scale(1 1) rotate(0) translate(4 1392)">
<title>models_diagram</title>
<polygon fill="white" stroke="white" points="-4,5 -4,-1392 745,-1392 745,5 -4,5"/>
<!-- _diagram_info -->
<g id="node1" class="node"><title>_diagram_info</title>
<text text-anchor="start" x="8" y="-1058.8" font-family="Times Roman,serif" font-size="13.00">Models diagram</text>
<text text-anchor="start" x="8" y="-1041.8" font-family="Times Roman,serif" font-size="13.00">Date: May 04 2013 &#45; 11:26</text>
<text text-anchor="start" x="8" y="-1024.8" font-family="Times Roman,serif" font-size="13.00">Migration version: 20130418163151</text>
<text text-anchor="start" x="8" y="-1007.8" font-family="Times Roman,serif" font-size="13.00">Generated by RailRoady 1.1.0</text>
<text text-anchor="start" x="8" y="-990.8" font-family="Times Roman,serif" font-size="13.00">http://railroady.prestonlee.com</text>
</g>
<!-- PlayersGame -->
<g id="node2" class="node"><title>PlayersGame</title>
<polyline fill="none" stroke="black" points="84.5,-1 225.5,-1 "/>
<path fill="none" stroke="black" d="M225.5,-1C231.5,-1 237.5,-7 237.5,-13"/>
<polyline fill="none" stroke="black" points="237.5,-13 237.5,-131 "/>
<path fill="none" stroke="black" d="M237.5,-131C237.5,-137 231.5,-143 225.5,-143"/>
<polyline fill="none" stroke="black" points="225.5,-143 84.5,-143 "/>
<path fill="none" stroke="black" d="M84.5,-143C78.5,-143 72.5,-137 72.5,-131"/>
<polyline fill="none" stroke="black" points="72.5,-131 72.5,-13 "/>
<path fill="none" stroke="black" d="M72.5,-13C72.5,-7 78.5,-1 84.5,-1"/>
<text text-anchor="middle" x="155" y="-126.4" font-family="Times Roman,serif" font-size="14.00">PlayersGame</text>
<polyline fill="none" stroke="black" points="72.5,-117 237.5,-117 "/>
<text text-anchor="start" x="80.5" y="-100.4" font-family="Times Roman,serif" font-size="14.00">id :integer</text>
<text text-anchor="start" x="80.5" y="-82.4" font-family="Times Roman,serif" font-size="14.00">player_id :integer</text>
<text text-anchor="start" x="80.5" y="-64.4" font-family="Times Roman,serif" font-size="14.00">game_id :integer</text>
<text text-anchor="start" x="80.5" y="-46.4" font-family="Times Roman,serif" font-size="14.00">stats_id :integer</text>
<text text-anchor="start" x="80.5" y="-28.4" font-family="Times Roman,serif" font-size="14.00">created_at :datetime</text>
<text text-anchor="start" x="80.5" y="-10.4" font-family="Times Roman,serif" font-size="14.00">updated_at :datetime</text>
</g>
<!-- Player -->
<g id="node3" class="node"><title>Player</title>
<polyline fill="none" stroke="black" points="279.5,-957 420.5,-957 "/>
<path fill="none" stroke="black" d="M420.5,-957C426.5,-957 432.5,-963 432.5,-969"/>
<polyline fill="none" stroke="black" points="432.5,-969 432.5,-1087 "/>
<path fill="none" stroke="black" d="M432.5,-1087C432.5,-1093 426.5,-1099 420.5,-1099"/>
<polyline fill="none" stroke="black" points="420.5,-1099 279.5,-1099 "/>
<path fill="none" stroke="black" d="M279.5,-1099C273.5,-1099 267.5,-1093 267.5,-1087"/>
<polyline fill="none" stroke="black" points="267.5,-1087 267.5,-969 "/>
<path fill="none" stroke="black" d="M267.5,-969C267.5,-963 273.5,-957 279.5,-957"/>
<text text-anchor="middle" x="350" y="-1082.4" font-family="Times Roman,serif" font-size="14.00">Player</text>
<polyline fill="none" stroke="black" points="267.5,-1073 432.5,-1073 "/>
<text text-anchor="start" x="275.5" y="-1056.4" font-family="Times Roman,serif" font-size="14.00">id :integer</text>
<text text-anchor="start" x="275.5" y="-1038.4" font-family="Times Roman,serif" font-size="14.00">position :string</text>
<text text-anchor="start" x="275.5" y="-1020.4" font-family="Times Roman,serif" font-size="14.00">name :string</text>
<text text-anchor="start" x="275.5" y="-1002.4" font-family="Times Roman,serif" font-size="14.00">url :string</text>
<text text-anchor="start" x="275.5" y="-984.4" font-family="Times Roman,serif" font-size="14.00">created_at :datetime</text>
<text text-anchor="start" x="275.5" y="-966.4" font-family="Times Roman,serif" font-size="14.00">updated_at :datetime</text>
</g>
<!-- Player&#45;&gt;PlayersGame -->
<g id="edge4" class="edge"><title>Player&#45;&gt;PlayersGame</title>
<path fill="none" stroke="#f708ae" d="M336.765,-948.768C322.775,-874.404 297.368,-761.004 259,-668 248.361,-642.211 239.507,-638.937 227,-614 180.376,-521.037 157.396,-499.98 137,-398 120.558,-315.789 129.124,-219.753 139.289,-153.31"/>
<ellipse fill="none" stroke="#f708ae" cx="337.517" cy="-952.806" rx="4.00001" ry="4.00001"/>
<polygon fill="#f708ae" stroke="#f708ae" points="139.307,-153.195 145.309,-144.018 140.085,-148.256 140.863,-143.317 140.863,-143.317 140.863,-143.317 140.085,-148.256 136.418,-142.617 139.307,-153.195 139.307,-153.195"/>
</g>
<!-- Game -->
<g id="node5" class="node"><title>Game</title>
<polyline fill="none" stroke="black" points="157.5,-183 326.5,-183 "/>
<path fill="none" stroke="black" d="M326.5,-183C332.5,-183 338.5,-189 338.5,-195"/>
<polyline fill="none" stroke="black" points="338.5,-195 338.5,-385 "/>
<path fill="none" stroke="black" d="M338.5,-385C338.5,-391 332.5,-397 326.5,-397"/>
<polyline fill="none" stroke="black" points="326.5,-397 157.5,-397 "/>
<path fill="none" stroke="black" d="M157.5,-397C151.5,-397 145.5,-391 145.5,-385"/>
<polyline fill="none" stroke="black" points="145.5,-385 145.5,-195 "/>
<path fill="none" stroke="black" d="M145.5,-195C145.5,-189 151.5,-183 157.5,-183"/>
<text text-anchor="middle" x="242" y="-380.4" font-family="Times Roman,serif" font-size="14.00">Game</text>
<polyline fill="none" stroke="black" points="145.5,-371 338.5,-371 "/>
<text text-anchor="start" x="153.5" y="-354.4" font-family="Times Roman,serif" font-size="14.00">id :integer</text>
<text text-anchor="start" x="153.5" y="-336.4" font-family="Times Roman,serif" font-size="14.00">date :datetime</text>
<text text-anchor="start" x="153.5" y="-318.4" font-family="Times Roman,serif" font-size="14.00">year :integer</text>
<text text-anchor="start" x="153.5" y="-300.4" font-family="Times Roman,serif" font-size="14.00">week :integer</text>
<text text-anchor="start" x="153.5" y="-282.4" font-family="Times Roman,serif" font-size="14.00">home_team_id :integer</text>
<text text-anchor="start" x="153.5" y="-264.4" font-family="Times Roman,serif" font-size="14.00">away_team_id :integer</text>
<text text-anchor="start" x="153.5" y="-246.4" font-family="Times Roman,serif" font-size="14.00">winning_team_id :integer</text>
<text text-anchor="start" x="153.5" y="-228.4" font-family="Times Roman,serif" font-size="14.00">weather :string</text>
<text text-anchor="start" x="153.5" y="-210.4" font-family="Times Roman,serif" font-size="14.00">created_at :datetime</text>
<text text-anchor="start" x="153.5" y="-192.4" font-family="Times Roman,serif" font-size="14.00">updated_at :datetime</text>
</g>
<!-- Player&#45;&gt;Game -->
<g id="edge8" class="edge"><title>Player&#45;&gt;Game</title>
<path fill="none" stroke="#a43b26" d="M327.898,-946.938C298.179,-833.329 246.884,-619.801 228,-434 227.123,-425.376 226.738,-416.46 226.726,-407.487"/>
<polygon fill="#a43b26" stroke="#a43b26" points="327.987,-947.276 326.177,-958.091 329.258,-952.112 330.529,-956.948 330.529,-956.948 330.529,-956.948 329.258,-952.112 334.881,-955.804 327.987,-947.276 327.987,-947.276"/>
<polygon fill="#a43b26" stroke="#a43b26" points="226.728,-407.345 231.366,-397.408 226.797,-402.345 226.866,-397.346 226.866,-397.346 226.866,-397.346 226.797,-402.345 222.367,-397.284 226.728,-407.345 226.728,-407.345"/>
</g>
<!-- PlayersYear -->
<g id="node6" class="node"><title>PlayersYear</title>
<polyline fill="none" stroke="black" points="544.5,-462 685.5,-462 "/>
<path fill="none" stroke="black" d="M685.5,-462C691.5,-462 697.5,-468 697.5,-474"/>
<polyline fill="none" stroke="black" points="697.5,-474 697.5,-592 "/>
<path fill="none" stroke="black" d="M697.5,-592C697.5,-598 691.5,-604 685.5,-604"/>
<polyline fill="none" stroke="black" points="685.5,-604 544.5,-604 "/>
<path fill="none" stroke="black" d="M544.5,-604C538.5,-604 532.5,-598 532.5,-592"/>
<polyline fill="none" stroke="black" points="532.5,-592 532.5,-474 "/>
<path fill="none" stroke="black" d="M532.5,-474C532.5,-468 538.5,-462 544.5,-462"/>
<text text-anchor="middle" x="615" y="-587.4" font-family="Times Roman,serif" font-size="14.00">PlayersYear</text>
<polyline fill="none" stroke="black" points="532.5,-578 697.5,-578 "/>
<text text-anchor="start" x="540.5" y="-561.4" font-family="Times Roman,serif" font-size="14.00">id :integer</text>
<text text-anchor="start" x="540.5" y="-543.4" font-family="Times Roman,serif" font-size="14.00">player_id :integer</text>
<text text-anchor="start" x="540.5" y="-525.4" font-family="Times Roman,serif" font-size="14.00">year :integer</text>
<text text-anchor="start" x="540.5" y="-507.4" font-family="Times Roman,serif" font-size="14.00">stats_id :integer</text>
<text text-anchor="start" x="540.5" y="-489.4" font-family="Times Roman,serif" font-size="14.00">created_at :datetime</text>
<text text-anchor="start" x="540.5" y="-471.4" font-family="Times Roman,serif" font-size="14.00">updated_at :datetime</text>
</g>
<!-- Player&#45;&gt;PlayersYear -->
<g id="edge10" class="edge"><title>Player&#45;&gt;PlayersYear</title>
<path fill="none" stroke="#34409f" d="M360.952,-948.732C375.686,-869.103 408.912,-747.155 481,-668 493.583,-654.183 504.271,-661.502 519,-650 533.065,-639.015 546.425,-625.624 558.463,-611.875"/>
<ellipse fill="none" stroke="#34409f" cx="360.209" cy="-952.847" rx="4.00001" ry="4.00001"/>
<polygon fill="#34409f" stroke="#34409f" points="558.514,-611.815 568.432,-607.137 561.763,-608.014 565.011,-604.213 565.011,-604.213 565.011,-604.213 561.763,-608.014 561.59,-601.29 558.514,-611.815 558.514,-611.815"/>
</g>
<!-- Team -->
<g id="node8" class="node"><title>Team</title>
<polyline fill="none" stroke="black" points="287.5,-453 428.5,-453 "/>
<path fill="none" stroke="black" d="M428.5,-453C434.5,-453 440.5,-459 440.5,-465"/>
<polyline fill="none" stroke="black" points="440.5,-465 440.5,-601 "/>
<path fill="none" stroke="black" d="M440.5,-601C440.5,-607 434.5,-613 428.5,-613"/>
<polyline fill="none" stroke="black" points="428.5,-613 287.5,-613 "/>
<path fill="none" stroke="black" d="M287.5,-613C281.5,-613 275.5,-607 275.5,-601"/>
<polyline fill="none" stroke="black" points="275.5,-601 275.5,-465 "/>
<path fill="none" stroke="black" d="M275.5,-465C275.5,-459 281.5,-453 287.5,-453"/>
<text text-anchor="middle" x="358" y="-596.4" font-family="Times Roman,serif" font-size="14.00">Team</text>
<polyline fill="none" stroke="black" points="275.5,-587 440.5,-587 "/>
<text text-anchor="start" x="283.5" y="-570.4" font-family="Times Roman,serif" font-size="14.00">id :integer</text>
<text text-anchor="start" x="283.5" y="-552.4" font-family="Times Roman,serif" font-size="14.00">name :string</text>
<text text-anchor="start" x="283.5" y="-534.4" font-family="Times Roman,serif" font-size="14.00">city :string</text>
<text text-anchor="start" x="283.5" y="-516.4" font-family="Times Roman,serif" font-size="14.00">active :boolean</text>
<text text-anchor="start" x="283.5" y="-498.4" font-family="Times Roman,serif" font-size="14.00">shortname :string</text>
<text text-anchor="start" x="283.5" y="-480.4" font-family="Times Roman,serif" font-size="14.00">created_at :datetime</text>
<text text-anchor="start" x="283.5" y="-462.4" font-family="Times Roman,serif" font-size="14.00">updated_at :datetime</text>
</g>
<!-- Player&#45;&gt;Team -->
<g id="edge6" class="edge"><title>Player&#45;&gt;Team</title>
<path fill="none" stroke="#109bfc" d="M346.402,-946.736C343.559,-866.635 340.975,-740.786 347,-632 347.159,-629.127 347.344,-626.209 347.551,-623.264"/>
<polygon fill="#109bfc" stroke="#109bfc" points="346.403,-946.764 342.271,-956.922 346.585,-951.761 346.768,-956.757 346.768,-956.757 346.768,-956.757 346.585,-951.761 351.265,-956.593 346.403,-946.764 346.403,-946.764"/>
<polygon fill="#109bfc" stroke="#109bfc" points="347.56,-623.144 352.818,-613.521 347.946,-618.159 348.332,-613.174 348.332,-613.174 348.332,-613.174 347.946,-618.159 343.845,-612.827 347.56,-623.144 347.56,-623.144"/>
</g>
<!-- PlayersTeam -->
<g id="node9" class="node"><title>PlayersTeam</title>
<polyline fill="none" stroke="black" points="555.5,-210 696.5,-210 "/>
<path fill="none" stroke="black" d="M696.5,-210C702.5,-210 708.5,-216 708.5,-222"/>
<polyline fill="none" stroke="black" points="708.5,-222 708.5,-358 "/>
<path fill="none" stroke="black" d="M708.5,-358C708.5,-364 702.5,-370 696.5,-370"/>
<polyline fill="none" stroke="black" points="696.5,-370 555.5,-370 "/>
<path fill="none" stroke="black" d="M555.5,-370C549.5,-370 543.5,-364 543.5,-358"/>
<polyline fill="none" stroke="black" points="543.5,-358 543.5,-222 "/>
<path fill="none" stroke="black" d="M543.5,-222C543.5,-216 549.5,-210 555.5,-210"/>
<text text-anchor="middle" x="626" y="-353.4" font-family="Times Roman,serif" font-size="14.00">PlayersTeam</text>
<polyline fill="none" stroke="black" points="543.5,-344 708.5,-344 "/>
<text text-anchor="start" x="551.5" y="-327.4" font-family="Times Roman,serif" font-size="14.00">id :integer</text>
<text text-anchor="start" x="551.5" y="-309.4" font-family="Times Roman,serif" font-size="14.00">player_id :integer</text>
<text text-anchor="start" x="551.5" y="-291.4" font-family="Times Roman,serif" font-size="14.00">team_id :integer</text>
<text text-anchor="start" x="551.5" y="-273.4" font-family="Times Roman,serif" font-size="14.00">start :integer</text>
<text text-anchor="start" x="551.5" y="-255.4" font-family="Times Roman,serif" font-size="14.00">end :integer</text>
<text text-anchor="start" x="551.5" y="-237.4" font-family="Times Roman,serif" font-size="14.00">created_at :datetime</text>
<text text-anchor="start" x="551.5" y="-219.4" font-family="Times Roman,serif" font-size="14.00">updated_at :datetime</text>
</g>
<!-- Player&#45;&gt;PlayersTeam -->
<g id="edge2" class="edge"><title>Player&#45;&gt;PlayersTeam</title>
<path fill="none" stroke="#1b7d04" d="M375.699,-949.102C400.349,-872.798 438.255,-753.797 469,-650 494.939,-562.429 487.056,-535.526 524,-452 534.908,-427.339 549.147,-402.037 563.51,-378.978"/>
<ellipse fill="none" stroke="#1b7d04" cx="374.437" cy="-953.004" rx="4.00001" ry="4.00001"/>
<polygon fill="#1b7d04" stroke="#1b7d04" points="563.677,-378.713 572.82,-372.658 566.346,-374.485 569.014,-370.257 569.014,-370.257 569.014,-370.257 566.346,-374.485 565.209,-367.855 563.677,-378.713 563.677,-378.713"/>
</g>
<!-- Stats -->
<g id="node4" class="node"><title>Stats</title>
<polyline fill="none" stroke="black" points="502,-669 728,-669 "/>
<path fill="none" stroke="black" d="M728,-669C734,-669 740,-675 740,-681"/>
<polyline fill="none" stroke="black" points="740,-681 740,-1375 "/>
<path fill="none" stroke="black" d="M740,-1375C740,-1381 734,-1387 728,-1387"/>
<polyline fill="none" stroke="black" points="728,-1387 502,-1387 "/>
<path fill="none" stroke="black" d="M502,-1387C496,-1387 490,-1381 490,-1375"/>
<polyline fill="none" stroke="black" points="490,-1375 490,-681 "/>
<path fill="none" stroke="black" d="M490,-681C490,-675 496,-669 502,-669"/>
<text text-anchor="middle" x="615" y="-1370.4" font-family="Times Roman,serif" font-size="14.00">Stats</text>
<polyline fill="none" stroke="black" points="490,-1361 740,-1361 "/>
<text text-anchor="start" x="498" y="-1344.4" font-family="Times Roman,serif" font-size="14.00">id :integer</text>
<text text-anchor="start" x="498" y="-1326.4" font-family="Times Roman,serif" font-size="14.00">rushing_attempts :integer</text>
<text text-anchor="start" x="498" y="-1308.4" font-family="Times Roman,serif" font-size="14.00">rushing_yards :integer</text>
<text text-anchor="start" x="498" y="-1290.4" font-family="Times Roman,serif" font-size="14.00">rushing_touchdowns :integer</text>
<text text-anchor="start" x="498" y="-1272.4" font-family="Times Roman,serif" font-size="14.00">fumbles :integer</text>
<text text-anchor="start" x="498" y="-1254.4" font-family="Times Roman,serif" font-size="14.00">receptions :integer</text>
<text text-anchor="start" x="498" y="-1236.4" font-family="Times Roman,serif" font-size="14.00">receiving_yards :integer</text>
<text text-anchor="start" x="498" y="-1218.4" font-family="Times Roman,serif" font-size="14.00">receiving_touchdowns :integer</text>
<text text-anchor="start" x="498" y="-1200.4" font-family="Times Roman,serif" font-size="14.00">completions :integer</text>
<text text-anchor="start" x="498" y="-1182.4" font-family="Times Roman,serif" font-size="14.00">attempts :integer</text>
<text text-anchor="start" x="498" y="-1164.4" font-family="Times Roman,serif" font-size="14.00">passing_yards :integer</text>
<text text-anchor="start" x="498" y="-1146.4" font-family="Times Roman,serif" font-size="14.00">passing_touchdowns :integer</text>
<text text-anchor="start" x="498" y="-1128.4" font-family="Times Roman,serif" font-size="14.00">interceptions_thrown :integer</text>
<text text-anchor="start" x="498" y="-1110.4" font-family="Times Roman,serif" font-size="14.00">times_sacked :integer</text>
<text text-anchor="start" x="498" y="-1092.4" font-family="Times Roman,serif" font-size="14.00">qb_rating :float</text>
<text text-anchor="start" x="498" y="-1074.4" font-family="Times Roman,serif" font-size="14.00">solo_tackles :integer</text>
<text text-anchor="start" x="498" y="-1056.4" font-family="Times Roman,serif" font-size="14.00">assist_tackles :integer</text>
<text text-anchor="start" x="498" y="-1038.4" font-family="Times Roman,serif" font-size="14.00">sacks :float</text>
<text text-anchor="start" x="498" y="-1020.4" font-family="Times Roman,serif" font-size="14.00">passes_defended :integer</text>
<text text-anchor="start" x="498" y="-1002.4" font-family="Times Roman,serif" font-size="14.00">interceptions :integer</text>
<text text-anchor="start" x="498" y="-984.4" font-family="Times Roman,serif" font-size="14.00">interception_touchdowns :integer</text>
<text text-anchor="start" x="498" y="-966.4" font-family="Times Roman,serif" font-size="14.00">fumbles_forced :integer</text>
<text text-anchor="start" x="498" y="-948.4" font-family="Times Roman,serif" font-size="14.00">fumbles_recovered :integer</text>
<text text-anchor="start" x="498" y="-930.4" font-family="Times Roman,serif" font-size="14.00">fumbles_touchdowns :integer</text>
<text text-anchor="start" x="498" y="-912.4" font-family="Times Roman,serif" font-size="14.00">kick_return_attempts :integer</text>
<text text-anchor="start" x="498" y="-894.4" font-family="Times Roman,serif" font-size="14.00">kick_return_yards :integer</text>
<text text-anchor="start" x="498" y="-876.4" font-family="Times Roman,serif" font-size="14.00">kick_return_touchdowns :integer</text>
<text text-anchor="start" x="498" y="-858.4" font-family="Times Roman,serif" font-size="14.00">punt_return_attempts :integer</text>
<text text-anchor="start" x="498" y="-840.4" font-family="Times Roman,serif" font-size="14.00">punt_return_yards :integer</text>
<text text-anchor="start" x="498" y="-822.4" font-family="Times Roman,serif" font-size="14.00">punt_return_touchdowns :integer</text>
<text text-anchor="start" x="498" y="-804.4" font-family="Times Roman,serif" font-size="14.00">field_goals_made :integer</text>
<text text-anchor="start" x="498" y="-786.4" font-family="Times Roman,serif" font-size="14.00">field_goals_attempted :integer</text>
<text text-anchor="start" x="498" y="-768.4" font-family="Times Roman,serif" font-size="14.00">extra_points_made :integer</text>
<text text-anchor="start" x="498" y="-750.4" font-family="Times Roman,serif" font-size="14.00">extra_points_attempted :integer</text>
<text text-anchor="start" x="498" y="-732.4" font-family="Times Roman,serif" font-size="14.00">punts :integer</text>
<text text-anchor="start" x="498" y="-714.4" font-family="Times Roman,serif" font-size="14.00">punt_yards :integer</text>
<text text-anchor="start" x="498" y="-696.4" font-family="Times Roman,serif" font-size="14.00">created_at :datetime</text>
<text text-anchor="start" x="498" y="-678.4" font-family="Times Roman,serif" font-size="14.00">updated_at :datetime</text>
</g>
<!-- Stats&#45;&gt;PlayersYear -->
<g id="edge12" class="edge"><title>Stats&#45;&gt;PlayersYear</title>
<path fill="none" stroke="#ebe439" d="M615,-660.678C615,-643.381 615,-627.114 615,-612.358"/>
<ellipse fill="none" stroke="#ebe439" cx="615" cy="-664.916" rx="4" ry="4"/>
<ellipse fill="#ebe439" stroke="#ebe439" cx="615" cy="-608.32" rx="4" ry="4"/>
</g>
<!-- Game&#45;&gt;PlayersGame -->
<g id="edge14" class="edge"><title>Game&#45;&gt;PlayersGame</title>
<path fill="none" stroke="#0a8fb0" d="M196.244,-175.346C193.178,-167.665 190.128,-160.021 187.153,-152.568"/>
<ellipse fill="none" stroke="#0a8fb0" cx="197.782" cy="-179.201" rx="4.00001" ry="4.00001"/>
<polygon fill="#0a8fb0" stroke="#0a8fb0" points="187.138,-152.529 187.611,-141.573 185.284,-147.885 183.431,-143.241 183.431,-143.241 183.431,-143.241 185.284,-147.885 179.252,-144.909 187.138,-152.529 187.138,-152.529"/>
</g>
<!-- TeamYear -->
<g id="node7" class="node"><title>TeamYear</title>
<polyline fill="none" stroke="black" points="373.5,-192 514.5,-192 "/>
<path fill="none" stroke="black" d="M514.5,-192C520.5,-192 526.5,-198 526.5,-204"/>
<polyline fill="none" stroke="black" points="526.5,-204 526.5,-376 "/>
<path fill="none" stroke="black" d="M526.5,-376C526.5,-382 520.5,-388 514.5,-388"/>
<polyline fill="none" stroke="black" points="514.5,-388 373.5,-388 "/>
<path fill="none" stroke="black" d="M373.5,-388C367.5,-388 361.5,-382 361.5,-376"/>
<polyline fill="none" stroke="black" points="361.5,-376 361.5,-204 "/>
<path fill="none" stroke="black" d="M361.5,-204C361.5,-198 367.5,-192 373.5,-192"/>
<text text-anchor="middle" x="444" y="-371.4" font-family="Times Roman,serif" font-size="14.00">TeamYear</text>
<polyline fill="none" stroke="black" points="361.5,-362 526.5,-362 "/>
<text text-anchor="start" x="369.5" y="-345.4" font-family="Times Roman,serif" font-size="14.00">id :integer</text>
<text text-anchor="start" x="369.5" y="-327.4" font-family="Times Roman,serif" font-size="14.00">team_id :integer</text>
<text text-anchor="start" x="369.5" y="-309.4" font-family="Times Roman,serif" font-size="14.00">stats_id :integer</text>
<text text-anchor="start" x="369.5" y="-291.4" font-family="Times Roman,serif" font-size="14.00">year :integer</text>
<text text-anchor="start" x="369.5" y="-273.4" font-family="Times Roman,serif" font-size="14.00">wins :integer</text>
<text text-anchor="start" x="369.5" y="-255.4" font-family="Times Roman,serif" font-size="14.00">losses :integer</text>
<text text-anchor="start" x="369.5" y="-237.4" font-family="Times Roman,serif" font-size="14.00">ties :integer</text>
<text text-anchor="start" x="369.5" y="-219.4" font-family="Times Roman,serif" font-size="14.00">created_at :datetime</text>
<text text-anchor="start" x="369.5" y="-201.4" font-family="Times Roman,serif" font-size="14.00">updated_at :datetime</text>
</g>
<!-- Team&#45;&gt;Player -->
<g id="edge16" class="edge"><title>Team&#45;&gt;Player</title>
<path fill="none" stroke="#ee9c3d" d="M356.572,-621.348C355.081,-713.617 352.762,-857.132 351.314,-946.687"/>
<ellipse fill="none" stroke="#ee9c3d" cx="356.64" cy="-617.136" rx="4" ry="4"/>
<polygon fill="#ee9c3d" stroke="#ee9c3d" points="351.312,-946.816 346.651,-956.742 351.231,-951.816 351.15,-956.815 351.15,-956.815 351.15,-956.815 351.231,-951.816 355.65,-956.888 351.312,-946.816 351.312,-946.816"/>
<text text-anchor="middle" x="411" y="-637.4" font-family="Times Roman,serif" font-size="14.00">current_players</text>
</g>
<!-- Team&#45;&gt;Game -->
<g id="edge18" class="edge"><title>Team&#45;&gt;Game</title>
<path fill="none" stroke="#dae0ca" d="M269.341,-476.8C256.242,-464.379 244.61,-450.059 237,-434 233.027,-425.617 230.311,-416.64 228.569,-407.418"/>
<ellipse fill="none" stroke="#dae0ca" cx="272.497" cy="-479.677" rx="4.00002" ry="4.00002"/>
<polygon fill="#dae0ca" stroke="#dae0ca" points="228.539,-407.22 231.499,-396.661 227.794,-402.276 227.049,-397.332 227.049,-397.332 227.049,-397.332 227.794,-402.276 222.6,-398.002 228.539,-407.22 228.539,-407.22"/>
<text text-anchor="middle" x="282.5" y="-421.4" font-family="Times Roman,serif" font-size="14.00">home_games</text>
</g>
<!-- Team&#45;&gt;Game -->
<g id="edge20" class="edge"><title>Team&#45;&gt;Game</title>
<path fill="none" stroke="#dfb993" d="M339.029,-445.09C335.83,-435.101 332.168,-425.21 328,-416 326.536,-412.765 324.99,-409.524 323.374,-406.285"/>
<ellipse fill="none" stroke="#dfb993" cx="340.208" cy="-448.915" rx="4.00001" ry="4.00001"/>
<polygon fill="#dfb993" stroke="#dfb993" points="323.251,-406.049 322.638,-395.1 320.948,-401.611 318.644,-397.173 318.644,-397.173 318.644,-397.173 320.948,-401.611 314.65,-399.246 323.251,-406.049 323.251,-406.049"/>
<text text-anchor="middle" x="380" y="-421.4" font-family="Times Roman,serif" font-size="14.00">away_games</text>
</g>
<!-- Team&#45;&gt;TeamYear -->
<g id="edge22" class="edge"><title>Team&#45;&gt;TeamYear</title>
<path fill="none" stroke="#7bc66e" d="M435.969,-445.559C437.844,-441.76 439.534,-437.902 441,-434 445.224,-422.753 447.968,-410.655 449.639,-398.422"/>
<ellipse fill="none" stroke="#7bc66e" cx="434.017" cy="-449.252" rx="4.00002" ry="4.00002"/>
<polygon fill="#7bc66e" stroke="#7bc66e" points="449.679,-398.067 455.271,-388.634 450.239,-393.099 450.8,-388.13 450.8,-388.13 450.8,-388.13 450.239,-393.099 446.328,-387.626 449.679,-398.067 449.679,-398.067"/>
</g>
<!-- Team&#45;&gt;PlayersTeam -->
<g id="edge24" class="edge"><title>Team&#45;&gt;PlayersTeam</title>
<path fill="none" stroke="#2e5797" d="M447.001,-450.009C462.118,-437.824 478.088,-426.022 494,-416 510.839,-405.394 519.063,-409.919 535,-398 543.099,-391.943 550.951,-385.033 558.425,-377.704"/>
<ellipse fill="none" stroke="#2e5797" cx="443.676" cy="-452.722" rx="4.00002" ry="4.00002"/>
<polygon fill="#2e5797" stroke="#2e5797" points="558.75,-377.374 568.974,-373.408 562.259,-373.812 565.768,-370.25 565.768,-370.25 565.768,-370.25 562.259,-373.812 562.562,-367.092 558.75,-377.374 558.75,-377.374"/>
</g>
</g>
</svg>
